<svg width="1363" height="163" viewBox="0 0 1363 163" fill="none" xmlns="http://www.w3.org/2000/svg">
<path d="M0 15C0 6.71573 6.71573 0 15 0H37V163H15C6.71573 163 0 156.284 0 148V15Z" fill="#424242"/>
<rect width="1097" height="163" transform="translate(37)" fill="#F0F0F0"/>
<path d="M101.906 53.9219L94.3945 51.2383V48.0859L104.602 52.375V54.6367L101.906 53.9219ZM94.3945 56.1719L101.918 53.4297L104.602 52.7852V55.0352L94.3945 59.3242V56.1719ZM124.277 50.8867V53.6289H115.371V50.8867H124.277ZM116.414 43.9375V61H112.898V43.9375H116.414ZM126.785 43.9375V61H123.281V43.9375H126.785ZM135.469 61.2344C134.484 61.2344 133.602 61.0781 132.82 60.7656C132.039 60.4453 131.375 60.0039 130.828 59.4414C130.289 58.8789 129.875 58.2266 129.586 57.4844C129.297 56.7344 129.152 55.9375 129.152 55.0938V54.625C129.152 53.6641 129.289 52.7852 129.562 51.9883C129.836 51.1914 130.227 50.5 130.734 49.9141C131.25 49.3281 131.875 48.8789 132.609 48.5664C133.344 48.2461 134.172 48.0859 135.094 48.0859C135.992 48.0859 136.789 48.2344 137.484 48.5312C138.18 48.8281 138.762 49.25 139.23 49.7969C139.707 50.3438 140.066 51 140.309 51.7656C140.551 52.5234 140.672 53.3672 140.672 54.2969V55.7031H130.594V53.4531H137.355V53.1953C137.355 52.7266 137.27 52.3086 137.098 51.9414C136.934 51.5664 136.684 51.2695 136.348 51.0508C136.012 50.832 135.582 50.7227 135.059 50.7227C134.613 50.7227 134.23 50.8203 133.91 51.0156C133.59 51.2109 133.328 51.4844 133.125 51.8359C132.93 52.1875 132.781 52.6016 132.68 53.0781C132.586 53.5469 132.539 54.0625 132.539 54.625V55.0938C132.539 55.6016 132.609 56.0703 132.75 56.5C132.898 56.9297 133.105 57.3008 133.371 57.6133C133.645 57.9258 133.973 58.168 134.355 58.3398C134.746 58.5117 135.188 58.5977 135.68 58.5977C136.289 58.5977 136.855 58.4805 137.379 58.2461C137.91 58.0039 138.367 57.6406 138.75 57.1562L140.391 58.9375C140.125 59.3203 139.762 59.6875 139.301 60.0391C138.848 60.3906 138.301 60.6797 137.66 60.9062C137.02 61.125 136.289 61.2344 135.469 61.2344ZM149.438 58.1406V52.4922C149.438 52.0859 149.371 51.7383 149.238 51.4492C149.105 51.1523 148.898 50.9219 148.617 50.7578C148.344 50.5938 147.988 50.5117 147.551 50.5117C147.176 50.5117 146.852 50.5781 146.578 50.7109C146.305 50.8359 146.094 51.0195 145.945 51.2617C145.797 51.4961 145.723 51.7734 145.723 52.0938H142.348C142.348 51.5547 142.473 51.043 142.723 50.5586C142.973 50.0742 143.336 49.6484 143.812 49.2812C144.289 48.9062 144.855 48.6133 145.512 48.4023C146.176 48.1914 146.918 48.0859 147.738 48.0859C148.723 48.0859 149.598 48.25 150.363 48.5781C151.129 48.9062 151.73 49.3984 152.168 50.0547C152.613 50.7109 152.836 51.5312 152.836 52.5156V57.9414C152.836 58.6367 152.879 59.207 152.965 59.6523C153.051 60.0898 153.176 60.4727 153.34 60.8008V61H149.93C149.766 60.6562 149.641 60.2266 149.555 59.7109C149.477 59.1875 149.438 58.6641 149.438 58.1406ZM149.883 53.2773L149.906 55.1875H148.02C147.574 55.1875 147.188 55.2383 146.859 55.3398C146.531 55.4414 146.262 55.5859 146.051 55.7734C145.84 55.9531 145.684 56.1641 145.582 56.4062C145.488 56.6484 145.441 56.9141 145.441 57.2031C145.441 57.4922 145.508 57.7539 145.641 57.9883C145.773 58.2148 145.965 58.3945 146.215 58.5273C146.465 58.6523 146.758 58.7148 147.094 58.7148C147.602 58.7148 148.043 58.6133 148.418 58.4102C148.793 58.207 149.082 57.957 149.285 57.6602C149.496 57.3633 149.605 57.082 149.613 56.8164L150.504 58.2461C150.379 58.5664 150.207 58.8984 149.988 59.2422C149.777 59.5859 149.508 59.9102 149.18 60.2148C148.852 60.5117 148.457 60.7578 147.996 60.9531C147.535 61.1406 146.988 61.2344 146.355 61.2344C145.551 61.2344 144.82 61.0742 144.164 60.7539C143.516 60.4258 143 59.9766 142.617 59.4062C142.242 58.8281 142.055 58.1719 142.055 57.4375C142.055 56.7734 142.18 56.1836 142.43 55.668C142.68 55.1523 143.047 54.7188 143.531 54.3672C144.023 54.0078 144.637 53.7383 145.371 53.5586C146.105 53.3711 146.957 53.2773 147.926 53.2773H149.883ZM158.812 51.0859V61H155.438V48.3203H158.613L158.812 51.0859ZM162.633 48.2383L162.574 51.3672C162.41 51.3438 162.211 51.3242 161.977 51.3086C161.75 51.2852 161.543 51.2734 161.355 51.2734C160.879 51.2734 160.465 51.3359 160.113 51.4609C159.77 51.5781 159.48 51.7539 159.246 51.9883C159.02 52.2227 158.848 52.5078 158.73 52.8438C158.621 53.1797 158.559 53.5625 158.543 53.9922L157.863 53.7812C157.863 52.9609 157.945 52.207 158.109 51.5195C158.273 50.8242 158.512 50.2188 158.824 49.7031C159.145 49.1875 159.535 48.7891 159.996 48.5078C160.457 48.2266 160.984 48.0859 161.578 48.0859C161.766 48.0859 161.957 48.1016 162.152 48.1328C162.348 48.1562 162.508 48.1914 162.633 48.2383ZM171.023 48.3203V50.7109H163.641V48.3203H171.023ZM165.469 45.1914H168.844V57.1797C168.844 57.5469 168.891 57.8281 168.984 58.0234C169.086 58.2188 169.234 58.3555 169.43 58.4336C169.625 58.5039 169.871 58.5391 170.168 58.5391C170.379 58.5391 170.566 58.5312 170.73 58.5156C170.902 58.4922 171.047 58.4688 171.164 58.4453L171.176 60.9297C170.887 61.0234 170.574 61.0977 170.238 61.1523C169.902 61.207 169.531 61.2344 169.125 61.2344C168.383 61.2344 167.734 61.1133 167.18 60.8711C166.633 60.6211 166.211 60.2227 165.914 59.6758C165.617 59.1289 165.469 58.4102 165.469 57.5195V45.1914ZM179.602 52.3516V55H172.98V52.3516H179.602ZM189.305 53.5117H184.922L184.898 51.0977H188.578C189.227 51.0977 189.758 51.0156 190.172 50.8516C190.586 50.6797 190.895 50.4336 191.098 50.1133C191.309 49.7852 191.414 49.3867 191.414 48.918C191.414 48.3867 191.312 47.957 191.109 47.6289C190.914 47.3008 190.605 47.0625 190.184 46.9141C189.77 46.7656 189.234 46.6914 188.578 46.6914H186.141V61H182.625V43.9375H188.578C189.57 43.9375 190.457 44.0312 191.238 44.2188C192.027 44.4062 192.695 44.6914 193.242 45.0742C193.789 45.457 194.207 45.9414 194.496 46.5273C194.785 47.1055 194.93 47.793 194.93 48.5898C194.93 49.293 194.77 49.9414 194.449 50.5352C194.137 51.1289 193.641 51.6133 192.961 51.9883C192.289 52.3633 191.41 52.5703 190.324 52.6094L189.305 53.5117ZM189.152 61H183.961L185.332 58.2578H189.152C189.77 58.2578 190.273 58.1602 190.664 57.9648C191.055 57.7617 191.344 57.4883 191.531 57.1445C191.719 56.8008 191.812 56.4062 191.812 55.9609C191.812 55.4609 191.727 55.0273 191.555 54.6602C191.391 54.293 191.125 54.0117 190.758 53.8164C190.391 53.6133 189.906 53.5117 189.305 53.5117H185.918L185.941 51.0977H190.16L190.969 52.0469C192.008 52.0312 192.844 52.2148 193.477 52.5977C194.117 52.9727 194.582 53.4609 194.871 54.0625C195.168 54.6641 195.316 55.3086 195.316 55.9961C195.316 57.0898 195.078 58.0117 194.602 58.7617C194.125 59.5039 193.426 60.0625 192.504 60.4375C191.59 60.8125 190.473 61 189.152 61ZM203.578 61.2344C202.594 61.2344 201.711 61.0781 200.93 60.7656C200.148 60.4453 199.484 60.0039 198.938 59.4414C198.398 58.8789 197.984 58.2266 197.695 57.4844C197.406 56.7344 197.262 55.9375 197.262 55.0938V54.625C197.262 53.6641 197.398 52.7852 197.672 51.9883C197.945 51.1914 198.336 50.5 198.844 49.9141C199.359 49.3281 199.984 48.8789 200.719 48.5664C201.453 48.2461 202.281 48.0859 203.203 48.0859C204.102 48.0859 204.898 48.2344 205.594 48.5312C206.289 48.8281 206.871 49.25 207.34 49.7969C207.816 50.3438 208.176 51 208.418 51.7656C208.66 52.5234 208.781 53.3672 208.781 54.2969V55.7031H198.703V53.4531H205.465V53.1953C205.465 52.7266 205.379 52.3086 205.207 51.9414C205.043 51.5664 204.793 51.2695 204.457 51.0508C204.121 50.832 203.691 50.7227 203.168 50.7227C202.723 50.7227 202.34 50.8203 202.02 51.0156C201.699 51.2109 201.438 51.4844 201.234 51.8359C201.039 52.1875 200.891 52.6016 200.789 53.0781C200.695 53.5469 200.648 54.0625 200.648 54.625V55.0938C200.648 55.6016 200.719 56.0703 200.859 56.5C201.008 56.9297 201.215 57.3008 201.48 57.6133C201.754 57.9258 202.082 58.168 202.465 58.3398C202.855 58.5117 203.297 58.5977 203.789 58.5977C204.398 58.5977 204.965 58.4805 205.488 58.2461C206.02 58.0039 206.477 57.6406 206.859 57.1562L208.5 58.9375C208.234 59.3203 207.871 59.6875 207.41 60.0391C206.957 60.3906 206.41 60.6797 205.77 60.9062C205.129 61.125 204.398 61.2344 203.578 61.2344ZM217.547 58.1406V52.4922C217.547 52.0859 217.48 51.7383 217.348 51.4492C217.215 51.1523 217.008 50.9219 216.727 50.7578C216.453 50.5938 216.098 50.5117 215.66 50.5117C215.285 50.5117 214.961 50.5781 214.688 50.7109C214.414 50.8359 214.203 51.0195 214.055 51.2617C213.906 51.4961 213.832 51.7734 213.832 52.0938H210.457C210.457 51.5547 210.582 51.043 210.832 50.5586C211.082 50.0742 211.445 49.6484 211.922 49.2812C212.398 48.9062 212.965 48.6133 213.621 48.4023C214.285 48.1914 215.027 48.0859 215.848 48.0859C216.832 48.0859 217.707 48.25 218.473 48.5781C219.238 48.9062 219.84 49.3984 220.277 50.0547C220.723 50.7109 220.945 51.5312 220.945 52.5156V57.9414C220.945 58.6367 220.988 59.207 221.074 59.6523C221.16 60.0898 221.285 60.4727 221.449 60.8008V61H218.039C217.875 60.6562 217.75 60.2266 217.664 59.7109C217.586 59.1875 217.547 58.6641 217.547 58.1406ZM217.992 53.2773L218.016 55.1875H216.129C215.684 55.1875 215.297 55.2383 214.969 55.3398C214.641 55.4414 214.371 55.5859 214.16 55.7734C213.949 55.9531 213.793 56.1641 213.691 56.4062C213.598 56.6484 213.551 56.9141 213.551 57.2031C213.551 57.4922 213.617 57.7539 213.75 57.9883C213.883 58.2148 214.074 58.3945 214.324 58.5273C214.574 58.6523 214.867 58.7148 215.203 58.7148C215.711 58.7148 216.152 58.6133 216.527 58.4102C216.902 58.207 217.191 57.957 217.395 57.6602C217.605 57.3633 217.715 57.082 217.723 56.8164L218.613 58.2461C218.488 58.5664 218.316 58.8984 218.098 59.2422C217.887 59.5859 217.617 59.9102 217.289 60.2148C216.961 60.5117 216.566 60.7578 216.105 60.9531C215.645 61.1406 215.098 61.2344 214.465 61.2344C213.66 61.2344 212.93 61.0742 212.273 60.7539C211.625 60.4258 211.109 59.9766 210.727 59.4062C210.352 58.8281 210.164 58.1719 210.164 57.4375C210.164 56.7734 210.289 56.1836 210.539 55.668C210.789 55.1523 211.156 54.7188 211.641 54.3672C212.133 54.0078 212.746 53.7383 213.48 53.5586C214.215 53.3711 215.066 53.2773 216.035 53.2773H217.992ZM229.758 48.3203V50.7109H222.375V48.3203H229.758ZM224.203 45.1914H227.578V57.1797C227.578 57.5469 227.625 57.8281 227.719 58.0234C227.82 58.2188 227.969 58.3555 228.164 58.4336C228.359 58.5039 228.605 58.5391 228.902 58.5391C229.113 58.5391 229.301 58.5312 229.465 58.5156C229.637 58.4922 229.781 58.4688 229.898 58.4453L229.91 60.9297C229.621 61.0234 229.309 61.0977 228.973 61.1523C228.637 61.207 228.266 61.2344 227.859 61.2344C227.117 61.2344 226.469 61.1133 225.914 60.8711C225.367 60.6211 224.945 60.2227 224.648 59.6758C224.352 59.1289 224.203 58.4102 224.203 57.5195V45.1914Z" fill="#888888"/>
<path d="M99.6797 84.875H106.383L114 108.617L121.617 84.875H128.32L116.719 119H111.281L99.6797 84.875ZM95.6016 84.875H102.539L103.828 111.031V119H95.6016V84.875ZM125.461 84.875H132.422V119H124.172V111.031L125.461 84.875ZM150.492 112.625V102.172C150.492 101.453 150.391 100.836 150.188 100.32C149.984 99.8047 149.664 99.4062 149.227 99.125C148.789 98.8281 148.203 98.6797 147.469 98.6797C146.875 98.6797 146.367 98.7812 145.945 98.9844C145.523 99.1875 145.203 99.4922 144.984 99.8984C144.766 100.305 144.656 100.82 144.656 101.445H136.758C136.758 100.273 137.016 99.1875 137.531 98.1875C138.062 97.1719 138.812 96.2891 139.781 95.5391C140.766 94.7891 141.938 94.2109 143.297 93.8047C144.672 93.3828 146.203 93.1719 147.891 93.1719C149.906 93.1719 151.703 93.5078 153.281 94.1797C154.875 94.8516 156.133 95.8594 157.055 97.2031C157.977 98.5312 158.438 100.203 158.438 102.219V112.602C158.438 114.258 158.531 115.516 158.719 116.375C158.906 117.219 159.172 117.961 159.516 118.602V119H151.594C151.219 118.219 150.938 117.266 150.75 116.141C150.578 115 150.492 113.828 150.492 112.625ZM151.453 103.508L151.5 107.727H148.008C147.273 107.727 146.648 107.828 146.133 108.031C145.633 108.234 145.227 108.516 144.914 108.875C144.617 109.219 144.398 109.609 144.258 110.047C144.133 110.484 144.07 110.945 144.07 111.43C144.07 111.898 144.18 112.32 144.398 112.695C144.633 113.055 144.945 113.336 145.336 113.539C145.727 113.742 146.164 113.844 146.648 113.844C147.523 113.844 148.266 113.68 148.875 113.352C149.5 113.008 149.977 112.594 150.305 112.109C150.633 111.625 150.797 111.172 150.797 110.75L152.531 113.984C152.219 114.609 151.859 115.242 151.453 115.883C151.062 116.523 150.57 117.117 149.977 117.664C149.398 118.195 148.688 118.633 147.844 118.977C147 119.305 145.977 119.469 144.773 119.469C143.211 119.469 141.773 119.148 140.461 118.508C139.164 117.867 138.125 116.977 137.344 115.836C136.562 114.68 136.172 113.352 136.172 111.852C136.172 110.539 136.406 109.367 136.875 108.336C137.359 107.305 138.086 106.43 139.055 105.711C140.023 104.992 141.258 104.445 142.758 104.07C144.258 103.695 146.023 103.508 148.055 103.508H151.453ZM173.531 113.375C174.266 113.375 174.891 113.242 175.406 112.977C175.938 112.695 176.336 112.305 176.602 111.805C176.883 111.289 177.016 110.672 177 109.953H184.43C184.445 111.859 183.977 113.531 183.023 114.969C182.086 116.391 180.805 117.5 179.18 118.297C177.57 119.078 175.75 119.469 173.719 119.469C171.734 119.469 170 119.148 168.516 118.508C167.031 117.852 165.789 116.945 164.789 115.789C163.805 114.617 163.062 113.25 162.562 111.688C162.078 110.125 161.836 108.43 161.836 106.602V106.062C161.836 104.234 162.078 102.539 162.562 100.977C163.062 99.3984 163.805 98.0312 164.789 96.875C165.789 95.7031 167.023 94.7969 168.492 94.1562C169.977 93.5 171.703 93.1719 173.672 93.1719C175.781 93.1719 177.641 93.5703 179.25 94.3672C180.875 95.1641 182.148 96.3203 183.07 97.8359C183.992 99.3516 184.445 101.188 184.43 103.344H177C177.016 102.578 176.898 101.891 176.648 101.281C176.398 100.672 176.008 100.188 175.477 99.8281C174.961 99.4531 174.297 99.2656 173.484 99.2656C172.672 99.2656 172.016 99.4453 171.516 99.8047C171.016 100.164 170.633 100.664 170.367 101.305C170.117 101.93 169.945 102.648 169.852 103.461C169.773 104.273 169.734 105.141 169.734 106.062V106.602C169.734 107.539 169.773 108.422 169.852 109.25C169.945 110.062 170.125 110.781 170.391 111.406C170.656 112.016 171.039 112.5 171.539 112.859C172.039 113.203 172.703 113.375 173.531 113.375ZM195.539 83V119H187.641V83H195.539ZM194.602 105.453L192.75 105.5C192.75 103.719 192.969 102.078 193.406 100.578C193.844 99.0781 194.469 97.7734 195.281 96.6641C196.094 95.5547 197.07 94.6953 198.211 94.0859C199.352 93.4766 200.617 93.1719 202.008 93.1719C203.258 93.1719 204.398 93.3516 205.43 93.7109C206.477 94.0703 207.375 94.6484 208.125 95.4453C208.891 96.2422 209.477 97.2812 209.883 98.5625C210.305 99.8438 210.516 101.406 210.516 103.25V119H202.57V103.203C202.57 102.172 202.422 101.375 202.125 100.812C201.844 100.234 201.438 99.8359 200.906 99.6172C200.375 99.3828 199.727 99.2656 198.961 99.2656C198.039 99.2656 197.289 99.4219 196.711 99.7344C196.133 100.047 195.688 100.484 195.375 101.047C195.078 101.594 194.875 102.242 194.766 102.992C194.656 103.742 194.602 104.562 194.602 105.453ZM223.242 93.6406V119H215.32V93.6406H223.242ZM214.852 87.1016C214.852 85.9766 215.258 85.0547 216.07 84.3359C216.883 83.6172 217.938 83.2578 219.234 83.2578C220.531 83.2578 221.586 83.6172 222.398 84.3359C223.211 85.0547 223.617 85.9766 223.617 87.1016C223.617 88.2266 223.211 89.1484 222.398 89.8672C221.586 90.5859 220.531 90.9453 219.234 90.9453C217.938 90.9453 216.883 90.5859 216.07 89.8672C215.258 89.1484 214.852 88.2266 214.852 87.1016ZM235.875 99.0547V119H227.977V93.6406H235.383L235.875 99.0547ZM234.938 105.453L233.086 105.5C233.086 103.562 233.32 101.836 233.789 100.32C234.258 98.7891 234.922 97.4922 235.781 96.4297C236.641 95.3672 237.664 94.5625 238.852 94.0156C240.055 93.4531 241.391 93.1719 242.859 93.1719C244.031 93.1719 245.102 93.3438 246.07 93.6875C247.055 94.0312 247.898 94.5859 248.602 95.3516C249.32 96.1172 249.867 97.1328 250.242 98.3984C250.633 99.6484 250.828 101.195 250.828 103.039V119H242.883V103.016C242.883 102 242.742 101.227 242.461 100.695C242.18 100.148 241.773 99.7734 241.242 99.5703C240.711 99.3672 240.062 99.2656 239.297 99.2656C238.484 99.2656 237.797 99.4219 237.234 99.7344C236.672 100.047 236.219 100.484 235.875 101.047C235.547 101.594 235.305 102.242 235.148 102.992C235.008 103.742 234.938 104.562 234.938 105.453ZM267.492 119.469C265.43 119.469 263.586 119.148 261.961 118.508C260.336 117.852 258.961 116.953 257.836 115.812C256.727 114.672 255.875 113.359 255.281 111.875C254.703 110.391 254.414 108.82 254.414 107.164V106.273C254.414 104.414 254.672 102.695 255.188 101.117C255.703 99.5234 256.469 98.1328 257.484 96.9453C258.5 95.7578 259.773 94.8359 261.305 94.1797C262.836 93.5078 264.617 93.1719 266.648 93.1719C268.445 93.1719 270.055 93.4609 271.477 94.0391C272.898 94.6172 274.102 95.4453 275.086 96.5234C276.086 97.6016 276.844 98.9062 277.359 100.438C277.891 101.969 278.156 103.688 278.156 105.594V108.805H257.438V103.859H270.445V103.25C270.461 102.406 270.312 101.688 270 101.094C269.703 100.5 269.266 100.047 268.688 99.7344C268.109 99.4219 267.406 99.2656 266.578 99.2656C265.719 99.2656 265.008 99.4531 264.445 99.8281C263.898 100.203 263.469 100.719 263.156 101.375C262.859 102.016 262.648 102.758 262.523 103.602C262.398 104.445 262.336 105.336 262.336 106.273V107.164C262.336 108.102 262.461 108.953 262.711 109.719C262.977 110.484 263.352 111.141 263.836 111.688C264.336 112.219 264.93 112.633 265.617 112.93C266.32 113.227 267.117 113.375 268.008 113.375C269.086 113.375 270.148 113.172 271.195 112.766C272.242 112.359 273.141 111.688 273.891 110.75L277.477 115.016C276.961 115.75 276.227 116.461 275.273 117.148C274.336 117.836 273.211 118.398 271.898 118.836C270.586 119.258 269.117 119.469 267.492 119.469ZM316.242 112.672V119H298.992V112.672H316.242ZM301.922 84.875V119H293.695V84.875H301.922ZM331.617 119.469C329.555 119.469 327.711 119.148 326.086 118.508C324.461 117.852 323.086 116.953 321.961 115.812C320.852 114.672 320 113.359 319.406 111.875C318.828 110.391 318.539 108.82 318.539 107.164V106.273C318.539 104.414 318.797 102.695 319.312 101.117C319.828 99.5234 320.594 98.1328 321.609 96.9453C322.625 95.7578 323.898 94.8359 325.43 94.1797C326.961 93.5078 328.742 93.1719 330.773 93.1719C332.57 93.1719 334.18 93.4609 335.602 94.0391C337.023 94.6172 338.227 95.4453 339.211 96.5234C340.211 97.6016 340.969 98.9062 341.484 100.438C342.016 101.969 342.281 103.688 342.281 105.594V108.805H321.562V103.859H334.57V103.25C334.586 102.406 334.438 101.688 334.125 101.094C333.828 100.5 333.391 100.047 332.812 99.7344C332.234 99.4219 331.531 99.2656 330.703 99.2656C329.844 99.2656 329.133 99.4531 328.57 99.8281C328.023 100.203 327.594 100.719 327.281 101.375C326.984 102.016 326.773 102.758 326.648 103.602C326.523 104.445 326.461 105.336 326.461 106.273V107.164C326.461 108.102 326.586 108.953 326.836 109.719C327.102 110.484 327.477 111.141 327.961 111.688C328.461 112.219 329.055 112.633 329.742 112.93C330.445 113.227 331.242 113.375 332.133 113.375C333.211 113.375 334.273 113.172 335.32 112.766C336.367 112.359 337.266 111.688 338.016 110.75L341.602 115.016C341.086 115.75 340.352 116.461 339.398 117.148C338.461 117.836 337.336 118.398 336.023 118.836C334.711 119.258 333.242 119.469 331.617 119.469ZM358.664 112.625V102.172C358.664 101.453 358.562 100.836 358.359 100.32C358.156 99.8047 357.836 99.4062 357.398 99.125C356.961 98.8281 356.375 98.6797 355.641 98.6797C355.047 98.6797 354.539 98.7812 354.117 98.9844C353.695 99.1875 353.375 99.4922 353.156 99.8984C352.938 100.305 352.828 100.82 352.828 101.445H344.93C344.93 100.273 345.188 99.1875 345.703 98.1875C346.234 97.1719 346.984 96.2891 347.953 95.5391C348.938 94.7891 350.109 94.2109 351.469 93.8047C352.844 93.3828 354.375 93.1719 356.062 93.1719C358.078 93.1719 359.875 93.5078 361.453 94.1797C363.047 94.8516 364.305 95.8594 365.227 97.2031C366.148 98.5312 366.609 100.203 366.609 102.219V112.602C366.609 114.258 366.703 115.516 366.891 116.375C367.078 117.219 367.344 117.961 367.688 118.602V119H359.766C359.391 118.219 359.109 117.266 358.922 116.141C358.75 115 358.664 113.828 358.664 112.625ZM359.625 103.508L359.672 107.727H356.18C355.445 107.727 354.82 107.828 354.305 108.031C353.805 108.234 353.398 108.516 353.086 108.875C352.789 109.219 352.57 109.609 352.43 110.047C352.305 110.484 352.242 110.945 352.242 111.43C352.242 111.898 352.352 112.32 352.57 112.695C352.805 113.055 353.117 113.336 353.508 113.539C353.898 113.742 354.336 113.844 354.82 113.844C355.695 113.844 356.438 113.68 357.047 113.352C357.672 113.008 358.148 112.594 358.477 112.109C358.805 111.625 358.969 111.172 358.969 110.75L360.703 113.984C360.391 114.609 360.031 115.242 359.625 115.883C359.234 116.523 358.742 117.117 358.148 117.664C357.57 118.195 356.859 118.633 356.016 118.977C355.172 119.305 354.148 119.469 352.945 119.469C351.383 119.469 349.945 119.148 348.633 118.508C347.336 117.867 346.297 116.977 345.516 115.836C344.734 114.68 344.344 113.352 344.344 111.852C344.344 110.539 344.578 109.367 345.047 108.336C345.531 107.305 346.258 106.43 347.227 105.711C348.195 104.992 349.43 104.445 350.93 104.07C352.43 103.695 354.195 103.508 356.227 103.508H359.625ZM378.961 99.9219V119H371.062V93.6406H378.445L378.961 99.9219ZM386.461 93.4531L386.32 100.789C386.008 100.758 385.586 100.719 385.055 100.672C384.523 100.625 384.078 100.602 383.719 100.602C382.797 100.602 382 100.711 381.328 100.93C380.672 101.133 380.125 101.445 379.688 101.867C379.266 102.273 378.953 102.789 378.75 103.414C378.562 104.039 378.477 104.766 378.492 105.594L377.062 104.656C377.062 102.953 377.227 101.406 377.555 100.016C377.898 98.6094 378.383 97.3984 379.008 96.3828C379.633 95.3516 380.391 94.5625 381.281 94.0156C382.172 93.4531 383.172 93.1719 384.281 93.1719C384.672 93.1719 385.055 93.1953 385.43 93.2422C385.82 93.2891 386.164 93.3594 386.461 93.4531ZM396.938 99.0547V119H389.039V93.6406H396.445L396.938 99.0547ZM396 105.453L394.148 105.5C394.148 103.562 394.383 101.836 394.852 100.32C395.32 98.7891 395.984 97.4922 396.844 96.4297C397.703 95.3672 398.727 94.5625 399.914 94.0156C401.117 93.4531 402.453 93.1719 403.922 93.1719C405.094 93.1719 406.164 93.3438 407.133 93.6875C408.117 94.0312 408.961 94.5859 409.664 95.3516C410.383 96.1172 410.93 97.1328 411.305 98.3984C411.695 99.6484 411.891 101.195 411.891 103.039V119H403.945V103.016C403.945 102 403.805 101.227 403.523 100.695C403.242 100.148 402.836 99.7734 402.305 99.5703C401.773 99.3672 401.125 99.2656 400.359 99.2656C399.547 99.2656 398.859 99.4219 398.297 99.7344C397.734 100.047 397.281 100.484 396.938 101.047C396.609 101.594 396.367 102.242 396.211 102.992C396.07 103.742 396 104.562 396 105.453ZM424.617 93.6406V119H416.695V93.6406H424.617ZM416.227 87.1016C416.227 85.9766 416.633 85.0547 417.445 84.3359C418.258 83.6172 419.312 83.2578 420.609 83.2578C421.906 83.2578 422.961 83.6172 423.773 84.3359C424.586 85.0547 424.992 85.9766 424.992 87.1016C424.992 88.2266 424.586 89.1484 423.773 89.8672C422.961 90.5859 421.906 90.9453 420.609 90.9453C419.312 90.9453 418.258 90.5859 417.445 89.8672C416.633 89.1484 416.227 88.2266 416.227 87.1016ZM437.25 99.0547V119H429.352V93.6406H436.758L437.25 99.0547ZM436.312 105.453L434.461 105.5C434.461 103.562 434.695 101.836 435.164 100.32C435.633 98.7891 436.297 97.4922 437.156 96.4297C438.016 95.3672 439.039 94.5625 440.227 94.0156C441.43 93.4531 442.766 93.1719 444.234 93.1719C445.406 93.1719 446.477 93.3438 447.445 93.6875C448.43 94.0312 449.273 94.5859 449.977 95.3516C450.695 96.1172 451.242 97.1328 451.617 98.3984C452.008 99.6484 452.203 101.195 452.203 103.039V119H444.258V103.016C444.258 102 444.117 101.227 443.836 100.695C443.555 100.148 443.148 99.7734 442.617 99.5703C442.086 99.3672 441.438 99.2656 440.672 99.2656C439.859 99.2656 439.172 99.4219 438.609 99.7344C438.047 100.047 437.594 100.484 437.25 101.047C436.922 101.594 436.68 102.242 436.523 102.992C436.383 103.742 436.312 104.562 436.312 105.453ZM472.523 93.6406H479.695V118.016C479.695 120.359 479.156 122.344 478.078 123.969C477 125.609 475.492 126.852 473.555 127.695C471.633 128.555 469.383 128.984 466.805 128.984C465.664 128.984 464.5 128.836 463.312 128.539C462.125 128.258 461.016 127.836 459.984 127.273C458.953 126.711 458.086 126.016 457.383 125.188L460.688 120.547C461.328 121.266 462.133 121.875 463.102 122.375C464.07 122.891 465.211 123.148 466.523 123.148C467.664 123.148 468.617 122.945 469.383 122.539C470.164 122.133 470.758 121.539 471.164 120.758C471.57 119.992 471.773 119.062 471.773 117.969V99.6406L472.523 93.6406ZM455.672 106.625V106.133C455.672 104.211 455.906 102.461 456.375 100.883C456.859 99.2891 457.547 97.9219 458.438 96.7812C459.344 95.625 460.438 94.7344 461.719 94.1094C463 93.4844 464.445 93.1719 466.055 93.1719C467.789 93.1719 469.211 93.5078 470.32 94.1797C471.445 94.8359 472.344 95.7578 473.016 96.9453C473.703 98.1328 474.234 99.5234 474.609 101.117C475 102.695 475.328 104.398 475.594 106.227V106.812C475.328 108.531 474.961 110.156 474.492 111.688C474.039 113.203 473.445 114.547 472.711 115.719C471.977 116.891 471.055 117.812 469.945 118.484C468.852 119.141 467.539 119.469 466.008 119.469C464.414 119.469 462.977 119.148 461.695 118.508C460.43 117.867 459.344 116.969 458.438 115.812C457.547 114.656 456.859 113.297 456.375 111.734C455.906 110.172 455.672 108.469 455.672 106.625ZM463.57 106.133V106.625C463.57 107.578 463.656 108.461 463.828 109.273C464.016 110.086 464.297 110.805 464.672 111.43C465.047 112.039 465.508 112.516 466.055 112.859C466.617 113.203 467.273 113.375 468.023 113.375C469.164 113.375 470.086 113.133 470.789 112.648C471.492 112.164 472 111.477 472.312 110.586C472.625 109.695 472.758 108.648 472.711 107.445V105.594C472.742 104.562 472.672 103.656 472.5 102.875C472.328 102.078 472.055 101.414 471.68 100.883C471.32 100.352 470.836 99.9531 470.227 99.6875C469.633 99.4062 468.914 99.2656 468.07 99.2656C467.336 99.2656 466.688 99.4375 466.125 99.7812C465.562 100.125 465.094 100.609 464.719 101.234C464.344 101.844 464.055 102.57 463.852 103.414C463.664 104.242 463.57 105.148 463.57 106.133ZM507.656 119H500.086L500.133 112.672H507.656C509.219 112.672 510.539 112.297 511.617 111.547C512.711 110.797 513.539 109.68 514.102 108.195C514.68 106.695 514.969 104.852 514.969 102.664V101.188C514.969 99.5469 514.805 98.1094 514.477 96.875C514.164 95.625 513.695 94.5859 513.07 93.7578C512.445 92.9141 511.664 92.2812 510.727 91.8594C509.805 91.4375 508.742 91.2266 507.539 91.2266H499.945V84.875H507.539C509.852 84.875 511.969 85.2734 513.891 86.0703C515.828 86.8516 517.5 87.9766 518.906 89.4453C520.328 90.8984 521.422 92.625 522.188 94.625C522.969 96.6094 523.359 98.8125 523.359 101.234V102.664C523.359 105.07 522.969 107.273 522.188 109.273C521.422 111.273 520.336 113 518.93 114.453C517.523 115.906 515.859 117.031 513.938 117.828C512.031 118.609 509.938 119 507.656 119ZM504.797 84.875V119H496.57V84.875H504.797ZM526.289 106.578V106.086C526.289 104.227 526.555 102.516 527.086 100.953C527.617 99.375 528.398 98.0078 529.43 96.8516C530.461 95.6953 531.734 94.7969 533.25 94.1562C534.766 93.5 536.516 93.1719 538.5 93.1719C540.5 93.1719 542.258 93.5 543.773 94.1562C545.305 94.7969 546.586 95.6953 547.617 96.8516C548.648 98.0078 549.43 99.375 549.961 100.953C550.492 102.516 550.758 104.227 550.758 106.086V106.578C550.758 108.422 550.492 110.133 549.961 111.711C549.43 113.273 548.648 114.641 547.617 115.812C546.586 116.969 545.312 117.867 543.797 118.508C542.281 119.148 540.531 119.469 538.547 119.469C536.562 119.469 534.805 119.148 533.273 118.508C531.742 117.867 530.461 116.969 529.43 115.812C528.398 114.641 527.617 113.273 527.086 111.711C526.555 110.133 526.289 108.422 526.289 106.578ZM534.188 106.086V106.578C534.188 107.531 534.258 108.422 534.398 109.25C534.539 110.078 534.773 110.805 535.102 111.43C535.43 112.039 535.875 112.516 536.438 112.859C537 113.203 537.703 113.375 538.547 113.375C539.375 113.375 540.062 113.203 540.609 112.859C541.172 112.516 541.617 112.039 541.945 111.43C542.273 110.805 542.508 110.078 542.648 109.25C542.789 108.422 542.859 107.531 542.859 106.578V106.086C542.859 105.164 542.789 104.297 542.648 103.484C542.508 102.656 542.273 101.93 541.945 101.305C541.617 100.664 541.172 100.164 540.609 99.8047C540.047 99.4453 539.344 99.2656 538.5 99.2656C537.672 99.2656 536.977 99.4453 536.414 99.8047C535.867 100.164 535.43 100.664 535.102 101.305C534.773 101.93 534.539 102.656 534.398 103.484C534.258 104.297 534.188 105.164 534.188 106.086ZM564.984 113.375C565.719 113.375 566.344 113.242 566.859 112.977C567.391 112.695 567.789 112.305 568.055 111.805C568.336 111.289 568.469 110.672 568.453 109.953H575.883C575.898 111.859 575.43 113.531 574.477 114.969C573.539 116.391 572.258 117.5 570.633 118.297C569.023 119.078 567.203 119.469 565.172 119.469C563.188 119.469 561.453 119.148 559.969 118.508C558.484 117.852 557.242 116.945 556.242 115.789C555.258 114.617 554.516 113.25 554.016 111.688C553.531 110.125 553.289 108.43 553.289 106.602V106.062C553.289 104.234 553.531 102.539 554.016 100.977C554.516 99.3984 555.258 98.0312 556.242 96.875C557.242 95.7031 558.477 94.7969 559.945 94.1562C561.43 93.5 563.156 93.1719 565.125 93.1719C567.234 93.1719 569.094 93.5703 570.703 94.3672C572.328 95.1641 573.602 96.3203 574.523 97.8359C575.445 99.3516 575.898 101.188 575.883 103.344H568.453C568.469 102.578 568.352 101.891 568.102 101.281C567.852 100.672 567.461 100.188 566.93 99.8281C566.414 99.4531 565.75 99.2656 564.938 99.2656C564.125 99.2656 563.469 99.4453 562.969 99.8047C562.469 100.164 562.086 100.664 561.82 101.305C561.57 101.93 561.398 102.648 561.305 103.461C561.227 104.273 561.188 105.141 561.188 106.062V106.602C561.188 107.539 561.227 108.422 561.305 109.25C561.398 110.062 561.578 110.781 561.844 111.406C562.109 112.016 562.492 112.5 562.992 112.859C563.492 113.203 564.156 113.375 564.984 113.375ZM594.07 112.836V93.6406H601.992V119H594.586L594.07 112.836ZM594.82 107.68L596.883 107.633C596.883 109.336 596.68 110.914 596.273 112.367C595.867 113.805 595.266 115.055 594.469 116.117C593.688 117.18 592.719 118.008 591.562 118.602C590.422 119.18 589.102 119.469 587.602 119.469C586.352 119.469 585.203 119.297 584.156 118.953C583.125 118.594 582.234 118.039 581.484 117.289C580.734 116.523 580.148 115.547 579.727 114.359C579.32 113.156 579.117 111.719 579.117 110.047V93.6406H587.016V110.094C587.016 110.656 587.086 111.141 587.227 111.547C587.367 111.953 587.57 112.297 587.836 112.578C588.102 112.844 588.43 113.047 588.82 113.188C589.227 113.312 589.688 113.375 590.203 113.375C591.391 113.375 592.32 113.125 592.992 112.625C593.664 112.125 594.133 111.445 594.398 110.586C594.68 109.727 594.82 108.758 594.82 107.68ZM614.32 99.0078V119H606.422V93.6406H613.828L614.32 99.0078ZM613.359 105.453L611.555 105.5C611.555 103.719 611.766 102.078 612.188 100.578C612.609 99.0781 613.234 97.7734 614.062 96.6641C614.891 95.5547 615.906 94.6953 617.109 94.0859C618.328 93.4766 619.734 93.1719 621.328 93.1719C622.438 93.1719 623.445 93.3438 624.352 93.6875C625.258 94.0156 626.039 94.5391 626.695 95.2578C627.352 95.9609 627.852 96.8828 628.195 98.0234C628.555 99.1484 628.734 100.5 628.734 102.078V119H620.836V103.086C620.836 102.008 620.711 101.195 620.461 100.648C620.227 100.102 619.883 99.7344 619.43 99.5469C618.977 99.3594 618.422 99.2656 617.766 99.2656C617.078 99.2656 616.461 99.4219 615.914 99.7344C615.367 100.047 614.898 100.484 614.508 101.047C614.133 101.594 613.844 102.242 613.641 102.992C613.453 103.742 613.359 104.562 613.359 105.453ZM627.844 105.453L625.641 105.5C625.641 103.719 625.836 102.078 626.227 100.578C626.633 99.0781 627.234 97.7734 628.031 96.6641C628.844 95.5547 629.852 94.6953 631.055 94.0859C632.258 93.4766 633.656 93.1719 635.25 93.1719C636.406 93.1719 637.469 93.3438 638.438 93.6875C639.406 94.0312 640.242 94.5859 640.945 95.3516C641.648 96.1172 642.195 97.1328 642.586 98.3984C642.977 99.6484 643.172 101.195 643.172 103.039V119H635.25V103.039C635.25 101.992 635.125 101.203 634.875 100.672C634.641 100.125 634.297 99.7578 633.844 99.5703C633.391 99.3672 632.852 99.2656 632.227 99.2656C631.477 99.2656 630.828 99.4219 630.281 99.7344C629.734 100.047 629.273 100.484 628.898 101.047C628.539 101.594 628.273 102.242 628.102 102.992C627.93 103.742 627.844 104.562 627.844 105.453ZM659.977 119.469C657.914 119.469 656.07 119.148 654.445 118.508C652.82 117.852 651.445 116.953 650.32 115.812C649.211 114.672 648.359 113.359 647.766 111.875C647.188 110.391 646.898 108.82 646.898 107.164V106.273C646.898 104.414 647.156 102.695 647.672 101.117C648.188 99.5234 648.953 98.1328 649.969 96.9453C650.984 95.7578 652.258 94.8359 653.789 94.1797C655.32 93.5078 657.102 93.1719 659.133 93.1719C660.93 93.1719 662.539 93.4609 663.961 94.0391C665.383 94.6172 666.586 95.4453 667.57 96.5234C668.57 97.6016 669.328 98.9062 669.844 100.438C670.375 101.969 670.641 103.688 670.641 105.594V108.805H649.922V103.859H662.93V103.25C662.945 102.406 662.797 101.688 662.484 101.094C662.188 100.5 661.75 100.047 661.172 99.7344C660.594 99.4219 659.891 99.2656 659.062 99.2656C658.203 99.2656 657.492 99.4531 656.93 99.8281C656.383 100.203 655.953 100.719 655.641 101.375C655.344 102.016 655.133 102.758 655.008 103.602C654.883 104.445 654.82 105.336 654.82 106.273V107.164C654.82 108.102 654.945 108.953 655.195 109.719C655.461 110.484 655.836 111.141 656.32 111.688C656.82 112.219 657.414 112.633 658.102 112.93C658.805 113.227 659.602 113.375 660.492 113.375C661.57 113.375 662.633 113.172 663.68 112.766C664.727 112.359 665.625 111.688 666.375 110.75L669.961 115.016C669.445 115.75 668.711 116.461 667.758 117.148C666.82 117.836 665.695 118.398 664.383 118.836C663.07 119.258 661.602 119.469 659.977 119.469ZM681.609 99.0547V119H673.711V93.6406H681.117L681.609 99.0547ZM680.672 105.453L678.82 105.5C678.82 103.562 679.055 101.836 679.523 100.32C679.992 98.7891 680.656 97.4922 681.516 96.4297C682.375 95.3672 683.398 94.5625 684.586 94.0156C685.789 93.4531 687.125 93.1719 688.594 93.1719C689.766 93.1719 690.836 93.3438 691.805 93.6875C692.789 94.0312 693.633 94.5859 694.336 95.3516C695.055 96.1172 695.602 97.1328 695.977 98.3984C696.367 99.6484 696.562 101.195 696.562 103.039V119H688.617V103.016C688.617 102 688.477 101.227 688.195 100.695C687.914 100.148 687.508 99.7734 686.977 99.5703C686.445 99.3672 685.797 99.2656 685.031 99.2656C684.219 99.2656 683.531 99.4219 682.969 99.7344C682.406 100.047 681.953 100.484 681.609 101.047C681.281 101.594 681.039 102.242 680.883 102.992C680.742 103.742 680.672 104.562 680.672 105.453ZM714.305 93.6406V99.125H699.023V93.6406H714.305ZM702.234 87.3359H710.133V110.727C710.133 111.398 710.211 111.922 710.367 112.297C710.523 112.656 710.789 112.914 711.164 113.07C711.555 113.211 712.07 113.281 712.711 113.281C713.164 113.281 713.539 113.273 713.836 113.258C714.133 113.227 714.414 113.188 714.68 113.141V118.789C714.008 119.008 713.305 119.172 712.57 119.281C711.836 119.406 711.055 119.469 710.227 119.469C708.539 119.469 707.094 119.203 705.891 118.672C704.703 118.141 703.797 117.305 703.172 116.164C702.547 115.023 702.234 113.539 702.234 111.711V87.3359ZM730.617 112.625V102.172C730.617 101.453 730.516 100.836 730.312 100.32C730.109 99.8047 729.789 99.4062 729.352 99.125C728.914 98.8281 728.328 98.6797 727.594 98.6797C727 98.6797 726.492 98.7812 726.07 98.9844C725.648 99.1875 725.328 99.4922 725.109 99.8984C724.891 100.305 724.781 100.82 724.781 101.445H716.883C716.883 100.273 717.141 99.1875 717.656 98.1875C718.188 97.1719 718.938 96.2891 719.906 95.5391C720.891 94.7891 722.062 94.2109 723.422 93.8047C724.797 93.3828 726.328 93.1719 728.016 93.1719C730.031 93.1719 731.828 93.5078 733.406 94.1797C735 94.8516 736.258 95.8594 737.18 97.2031C738.102 98.5312 738.562 100.203 738.562 102.219V112.602C738.562 114.258 738.656 115.516 738.844 116.375C739.031 117.219 739.297 117.961 739.641 118.602V119H731.719C731.344 118.219 731.062 117.266 730.875 116.141C730.703 115 730.617 113.828 730.617 112.625ZM731.578 103.508L731.625 107.727H728.133C727.398 107.727 726.773 107.828 726.258 108.031C725.758 108.234 725.352 108.516 725.039 108.875C724.742 109.219 724.523 109.609 724.383 110.047C724.258 110.484 724.195 110.945 724.195 111.43C724.195 111.898 724.305 112.32 724.523 112.695C724.758 113.055 725.07 113.336 725.461 113.539C725.852 113.742 726.289 113.844 726.773 113.844C727.648 113.844 728.391 113.68 729 113.352C729.625 113.008 730.102 112.594 730.43 112.109C730.758 111.625 730.922 111.172 730.922 110.75L732.656 113.984C732.344 114.609 731.984 115.242 731.578 115.883C731.188 116.523 730.695 117.117 730.102 117.664C729.523 118.195 728.812 118.633 727.969 118.977C727.125 119.305 726.102 119.469 724.898 119.469C723.336 119.469 721.898 119.148 720.586 118.508C719.289 117.867 718.25 116.977 717.469 115.836C716.688 114.68 716.297 113.352 716.297 111.852C716.297 110.539 716.531 109.367 717 108.336C717.484 107.305 718.211 106.43 719.18 105.711C720.148 104.992 721.383 104.445 722.883 104.07C724.383 103.695 726.148 103.508 728.18 103.508H731.578ZM756.305 93.6406V99.125H741.023V93.6406H756.305ZM744.234 87.3359H752.133V110.727C752.133 111.398 752.211 111.922 752.367 112.297C752.523 112.656 752.789 112.914 753.164 113.07C753.555 113.211 754.07 113.281 754.711 113.281C755.164 113.281 755.539 113.273 755.836 113.258C756.133 113.227 756.414 113.188 756.68 113.141V118.789C756.008 119.008 755.305 119.172 754.57 119.281C753.836 119.406 753.055 119.469 752.227 119.469C750.539 119.469 749.094 119.203 747.891 118.672C746.703 118.141 745.797 117.305 745.172 116.164C744.547 115.023 744.234 113.539 744.234 111.711V87.3359ZM767.789 93.6406V119H759.867V93.6406H767.789ZM759.398 87.1016C759.398 85.9766 759.805 85.0547 760.617 84.3359C761.43 83.6172 762.484 83.2578 763.781 83.2578C765.078 83.2578 766.133 83.6172 766.945 84.3359C767.758 85.0547 768.164 85.9766 768.164 87.1016C768.164 88.2266 767.758 89.1484 766.945 89.8672C766.133 90.5859 765.078 90.9453 763.781 90.9453C762.484 90.9453 761.43 90.5859 760.617 89.8672C759.805 89.1484 759.398 88.2266 759.398 87.1016ZM771.68 106.578V106.086C771.68 104.227 771.945 102.516 772.477 100.953C773.008 99.375 773.789 98.0078 774.82 96.8516C775.852 95.6953 777.125 94.7969 778.641 94.1562C780.156 93.5 781.906 93.1719 783.891 93.1719C785.891 93.1719 787.648 93.5 789.164 94.1562C790.695 94.7969 791.977 95.6953 793.008 96.8516C794.039 98.0078 794.82 99.375 795.352 100.953C795.883 102.516 796.148 104.227 796.148 106.086V106.578C796.148 108.422 795.883 110.133 795.352 111.711C794.82 113.273 794.039 114.641 793.008 115.812C791.977 116.969 790.703 117.867 789.188 118.508C787.672 119.148 785.922 119.469 783.938 119.469C781.953 119.469 780.195 119.148 778.664 118.508C777.133 117.867 775.852 116.969 774.82 115.812C773.789 114.641 773.008 113.273 772.477 111.711C771.945 110.133 771.68 108.422 771.68 106.578ZM779.578 106.086V106.578C779.578 107.531 779.648 108.422 779.789 109.25C779.93 110.078 780.164 110.805 780.492 111.43C780.82 112.039 781.266 112.516 781.828 112.859C782.391 113.203 783.094 113.375 783.938 113.375C784.766 113.375 785.453 113.203 786 112.859C786.562 112.516 787.008 112.039 787.336 111.43C787.664 110.805 787.898 110.078 788.039 109.25C788.18 108.422 788.25 107.531 788.25 106.578V106.086C788.25 105.164 788.18 104.297 788.039 103.484C787.898 102.656 787.664 101.93 787.336 101.305C787.008 100.664 786.562 100.164 786 99.8047C785.438 99.4453 784.734 99.2656 783.891 99.2656C783.062 99.2656 782.367 99.4453 781.805 99.8047C781.258 100.164 780.82 100.664 780.492 101.305C780.164 101.93 779.93 102.656 779.789 103.484C779.648 104.297 779.578 105.164 779.578 106.086ZM807.422 99.0547V119H799.523V93.6406H806.93L807.422 99.0547ZM806.484 105.453L804.633 105.5C804.633 103.562 804.867 101.836 805.336 100.32C805.805 98.7891 806.469 97.4922 807.328 96.4297C808.188 95.3672 809.211 94.5625 810.398 94.0156C811.602 93.4531 812.938 93.1719 814.406 93.1719C815.578 93.1719 816.648 93.3438 817.617 93.6875C818.602 94.0312 819.445 94.5859 820.148 95.3516C820.867 96.1172 821.414 97.1328 821.789 98.3984C822.18 99.6484 822.375 101.195 822.375 103.039V119H814.43V103.016C814.43 102 814.289 101.227 814.008 100.695C813.727 100.148 813.32 99.7734 812.789 99.5703C812.258 99.3672 811.609 99.2656 810.844 99.2656C810.031 99.2656 809.344 99.4219 808.781 99.7344C808.219 100.047 807.766 100.484 807.422 101.047C807.094 101.594 806.852 102.242 806.695 102.992C806.555 103.742 806.484 104.562 806.484 105.453Z" fill="black"/>
<path d="M1134 0H1348C1356.28 0 1363 6.71573 1363 15V148C1363 156.284 1356.28 163 1348 163H1134V0Z" fill="#FF914D"/>
<path d="M1212.5 117.5L1212.5 45.5L1284.5 45.5L1284.5 117.5L1212.5 117.5Z" fill="white" fill-opacity="0.01"/>
<path d="M1221.5 81.5125L1221.5 108.5L1275.5 108.5L1275.5 81.5" stroke="white" stroke-width="7.24" stroke-linecap="round" stroke-linejoin="round"/>
<path d="M1262 68L1248.5 54.5L1235 68" stroke="white" stroke-width="7.24" stroke-linecap="round" stroke-linejoin="round"/>
<path d="M1248.49 93.5L1248.49 54.5" stroke="white" stroke-width="7.24" stroke-linecap="round" stroke-linejoin="round"/>
</svg>
