<svg width="1363" height="163" viewBox="0 0 1363 163" fill="none" xmlns="http://www.w3.org/2000/svg">
<path d="M0 15C0 6.71573 6.71573 0 15 0H37V163H15C6.71573 163 0 156.284 0 148V15Z" fill="#424242"/>
<rect width="1097" height="163" transform="translate(37)" fill="#F0F0F0"/>
<path d="M101.906 53.9219L94.3945 51.2383V48.0859L104.602 52.375V54.6367L101.906 53.9219ZM94.3945 56.1719L101.918 53.4297L104.602 52.7852V55.0352L94.3945 59.3242V56.1719ZM124.277 50.8867V53.6289H115.371V50.8867H124.277ZM116.414 43.9375V61H112.898V43.9375H116.414ZM126.785 43.9375V61H123.281V43.9375H126.785ZM135.469 61.2344C134.484 61.2344 133.602 61.0781 132.82 60.7656C132.039 60.4453 131.375 60.0039 130.828 59.4414C130.289 58.8789 129.875 58.2266 129.586 57.4844C129.297 56.7344 129.152 55.9375 129.152 55.0938V54.625C129.152 53.6641 129.289 52.7852 129.562 51.9883C129.836 51.1914 130.227 50.5 130.734 49.9141C131.25 49.3281 131.875 48.8789 132.609 48.5664C133.344 48.2461 134.172 48.0859 135.094 48.0859C135.992 48.0859 136.789 48.2344 137.484 48.5312C138.18 48.8281 138.762 49.25 139.23 49.7969C139.707 50.3438 140.066 51 140.309 51.7656C140.551 52.5234 140.672 53.3672 140.672 54.2969V55.7031H130.594V53.4531H137.355V53.1953C137.355 52.7266 137.27 52.3086 137.098 51.9414C136.934 51.5664 136.684 51.2695 136.348 51.0508C136.012 50.832 135.582 50.7227 135.059 50.7227C134.613 50.7227 134.23 50.8203 133.91 51.0156C133.59 51.2109 133.328 51.4844 133.125 51.8359C132.93 52.1875 132.781 52.6016 132.68 53.0781C132.586 53.5469 132.539 54.0625 132.539 54.625V55.0938C132.539 55.6016 132.609 56.0703 132.75 56.5C132.898 56.9297 133.105 57.3008 133.371 57.6133C133.645 57.9258 133.973 58.168 134.355 58.3398C134.746 58.5117 135.188 58.5977 135.68 58.5977C136.289 58.5977 136.855 58.4805 137.379 58.2461C137.91 58.0039 138.367 57.6406 138.75 57.1562L140.391 58.9375C140.125 59.3203 139.762 59.6875 139.301 60.0391C138.848 60.3906 138.301 60.6797 137.66 60.9062C137.02 61.125 136.289 61.2344 135.469 61.2344ZM149.438 58.1406V52.4922C149.438 52.0859 149.371 51.7383 149.238 51.4492C149.105 51.1523 148.898 50.9219 148.617 50.7578C148.344 50.5938 147.988 50.5117 147.551 50.5117C147.176 50.5117 146.852 50.5781 146.578 50.7109C146.305 50.8359 146.094 51.0195 145.945 51.2617C145.797 51.4961 145.723 51.7734 145.723 52.0938H142.348C142.348 51.5547 142.473 51.043 142.723 50.5586C142.973 50.0742 143.336 49.6484 143.812 49.2812C144.289 48.9062 144.855 48.6133 145.512 48.4023C146.176 48.1914 146.918 48.0859 147.738 48.0859C148.723 48.0859 149.598 48.25 150.363 48.5781C151.129 48.9062 151.73 49.3984 152.168 50.0547C152.613 50.7109 152.836 51.5312 152.836 52.5156V57.9414C152.836 58.6367 152.879 59.207 152.965 59.6523C153.051 60.0898 153.176 60.4727 153.34 60.8008V61H149.93C149.766 60.6562 149.641 60.2266 149.555 59.7109C149.477 59.1875 149.438 58.6641 149.438 58.1406ZM149.883 53.2773L149.906 55.1875H148.02C147.574 55.1875 147.188 55.2383 146.859 55.3398C146.531 55.4414 146.262 55.5859 146.051 55.7734C145.84 55.9531 145.684 56.1641 145.582 56.4062C145.488 56.6484 145.441 56.9141 145.441 57.2031C145.441 57.4922 145.508 57.7539 145.641 57.9883C145.773 58.2148 145.965 58.3945 146.215 58.5273C146.465 58.6523 146.758 58.7148 147.094 58.7148C147.602 58.7148 148.043 58.6133 148.418 58.4102C148.793 58.207 149.082 57.957 149.285 57.6602C149.496 57.3633 149.605 57.082 149.613 56.8164L150.504 58.2461C150.379 58.5664 150.207 58.8984 149.988 59.2422C149.777 59.5859 149.508 59.9102 149.18 60.2148C148.852 60.5117 148.457 60.7578 147.996 60.9531C147.535 61.1406 146.988 61.2344 146.355 61.2344C145.551 61.2344 144.82 61.0742 144.164 60.7539C143.516 60.4258 143 59.9766 142.617 59.4062C142.242 58.8281 142.055 58.1719 142.055 57.4375C142.055 56.7734 142.18 56.1836 142.43 55.668C142.68 55.1523 143.047 54.7188 143.531 54.3672C144.023 54.0078 144.637 53.7383 145.371 53.5586C146.105 53.3711 146.957 53.2773 147.926 53.2773H149.883ZM158.812 51.0859V61H155.438V48.3203H158.613L158.812 51.0859ZM162.633 48.2383L162.574 51.3672C162.41 51.3438 162.211 51.3242 161.977 51.3086C161.75 51.2852 161.543 51.2734 161.355 51.2734C160.879 51.2734 160.465 51.3359 160.113 51.4609C159.77 51.5781 159.48 51.7539 159.246 51.9883C159.02 52.2227 158.848 52.5078 158.73 52.8438C158.621 53.1797 158.559 53.5625 158.543 53.9922L157.863 53.7812C157.863 52.9609 157.945 52.207 158.109 51.5195C158.273 50.8242 158.512 50.2188 158.824 49.7031C159.145 49.1875 159.535 48.7891 159.996 48.5078C160.457 48.2266 160.984 48.0859 161.578 48.0859C161.766 48.0859 161.957 48.1016 162.152 48.1328C162.348 48.1562 162.508 48.1914 162.633 48.2383ZM171.023 48.3203V50.7109H163.641V48.3203H171.023ZM165.469 45.1914H168.844V57.1797C168.844 57.5469 168.891 57.8281 168.984 58.0234C169.086 58.2188 169.234 58.3555 169.43 58.4336C169.625 58.5039 169.871 58.5391 170.168 58.5391C170.379 58.5391 170.566 58.5312 170.73 58.5156C170.902 58.4922 171.047 58.4688 171.164 58.4453L171.176 60.9297C170.887 61.0234 170.574 61.0977 170.238 61.1523C169.902 61.207 169.531 61.2344 169.125 61.2344C168.383 61.2344 167.734 61.1133 167.18 60.8711C166.633 60.6211 166.211 60.2227 165.914 59.6758C165.617 59.1289 165.469 58.4102 165.469 57.5195V45.1914ZM179.602 52.3516V55H172.98V52.3516H179.602ZM189.305 53.5117H184.922L184.898 51.0977H188.578C189.227 51.0977 189.758 51.0156 190.172 50.8516C190.586 50.6797 190.895 50.4336 191.098 50.1133C191.309 49.7852 191.414 49.3867 191.414 48.918C191.414 48.3867 191.312 47.957 191.109 47.6289C190.914 47.3008 190.605 47.0625 190.184 46.9141C189.77 46.7656 189.234 46.6914 188.578 46.6914H186.141V61H182.625V43.9375H188.578C189.57 43.9375 190.457 44.0312 191.238 44.2188C192.027 44.4062 192.695 44.6914 193.242 45.0742C193.789 45.457 194.207 45.9414 194.496 46.5273C194.785 47.1055 194.93 47.793 194.93 48.5898C194.93 49.293 194.77 49.9414 194.449 50.5352C194.137 51.1289 193.641 51.6133 192.961 51.9883C192.289 52.3633 191.41 52.5703 190.324 52.6094L189.305 53.5117ZM189.152 61H183.961L185.332 58.2578H189.152C189.77 58.2578 190.273 58.1602 190.664 57.9648C191.055 57.7617 191.344 57.4883 191.531 57.1445C191.719 56.8008 191.812 56.4062 191.812 55.9609C191.812 55.4609 191.727 55.0273 191.555 54.6602C191.391 54.293 191.125 54.0117 190.758 53.8164C190.391 53.6133 189.906 53.5117 189.305 53.5117H185.918L185.941 51.0977H190.16L190.969 52.0469C192.008 52.0312 192.844 52.2148 193.477 52.5977C194.117 52.9727 194.582 53.4609 194.871 54.0625C195.168 54.6641 195.316 55.3086 195.316 55.9961C195.316 57.0898 195.078 58.0117 194.602 58.7617C194.125 59.5039 193.426 60.0625 192.504 60.4375C191.59 60.8125 190.473 61 189.152 61ZM203.578 61.2344C202.594 61.2344 201.711 61.0781 200.93 60.7656C200.148 60.4453 199.484 60.0039 198.938 59.4414C198.398 58.8789 197.984 58.2266 197.695 57.4844C197.406 56.7344 197.262 55.9375 197.262 55.0938V54.625C197.262 53.6641 197.398 52.7852 197.672 51.9883C197.945 51.1914 198.336 50.5 198.844 49.9141C199.359 49.3281 199.984 48.8789 200.719 48.5664C201.453 48.2461 202.281 48.0859 203.203 48.0859C204.102 48.0859 204.898 48.2344 205.594 48.5312C206.289 48.8281 206.871 49.25 207.34 49.7969C207.816 50.3438 208.176 51 208.418 51.7656C208.66 52.5234 208.781 53.3672 208.781 54.2969V55.7031H198.703V53.4531H205.465V53.1953C205.465 52.7266 205.379 52.3086 205.207 51.9414C205.043 51.5664 204.793 51.2695 204.457 51.0508C204.121 50.832 203.691 50.7227 203.168 50.7227C202.723 50.7227 202.34 50.8203 202.02 51.0156C201.699 51.2109 201.438 51.4844 201.234 51.8359C201.039 52.1875 200.891 52.6016 200.789 53.0781C200.695 53.5469 200.648 54.0625 200.648 54.625V55.0938C200.648 55.6016 200.719 56.0703 200.859 56.5C201.008 56.9297 201.215 57.3008 201.48 57.6133C201.754 57.9258 202.082 58.168 202.465 58.3398C202.855 58.5117 203.297 58.5977 203.789 58.5977C204.398 58.5977 204.965 58.4805 205.488 58.2461C206.02 58.0039 206.477 57.6406 206.859 57.1562L208.5 58.9375C208.234 59.3203 207.871 59.6875 207.41 60.0391C206.957 60.3906 206.41 60.6797 205.77 60.9062C205.129 61.125 204.398 61.2344 203.578 61.2344ZM217.547 58.1406V52.4922C217.547 52.0859 217.48 51.7383 217.348 51.4492C217.215 51.1523 217.008 50.9219 216.727 50.7578C216.453 50.5938 216.098 50.5117 215.66 50.5117C215.285 50.5117 214.961 50.5781 214.688 50.7109C214.414 50.8359 214.203 51.0195 214.055 51.2617C213.906 51.4961 213.832 51.7734 213.832 52.0938H210.457C210.457 51.5547 210.582 51.043 210.832 50.5586C211.082 50.0742 211.445 49.6484 211.922 49.2812C212.398 48.9062 212.965 48.6133 213.621 48.4023C214.285 48.1914 215.027 48.0859 215.848 48.0859C216.832 48.0859 217.707 48.25 218.473 48.5781C219.238 48.9062 219.84 49.3984 220.277 50.0547C220.723 50.7109 220.945 51.5312 220.945 52.5156V57.9414C220.945 58.6367 220.988 59.207 221.074 59.6523C221.16 60.0898 221.285 60.4727 221.449 60.8008V61H218.039C217.875 60.6562 217.75 60.2266 217.664 59.7109C217.586 59.1875 217.547 58.6641 217.547 58.1406ZM217.992 53.2773L218.016 55.1875H216.129C215.684 55.1875 215.297 55.2383 214.969 55.3398C214.641 55.4414 214.371 55.5859 214.16 55.7734C213.949 55.9531 213.793 56.1641 213.691 56.4062C213.598 56.6484 213.551 56.9141 213.551 57.2031C213.551 57.4922 213.617 57.7539 213.75 57.9883C213.883 58.2148 214.074 58.3945 214.324 58.5273C214.574 58.6523 214.867 58.7148 215.203 58.7148C215.711 58.7148 216.152 58.6133 216.527 58.4102C216.902 58.207 217.191 57.957 217.395 57.6602C217.605 57.3633 217.715 57.082 217.723 56.8164L218.613 58.2461C218.488 58.5664 218.316 58.8984 218.098 59.2422C217.887 59.5859 217.617 59.9102 217.289 60.2148C216.961 60.5117 216.566 60.7578 216.105 60.9531C215.645 61.1406 215.098 61.2344 214.465 61.2344C213.66 61.2344 212.93 61.0742 212.273 60.7539C211.625 60.4258 211.109 59.9766 210.727 59.4062C210.352 58.8281 210.164 58.1719 210.164 57.4375C210.164 56.7734 210.289 56.1836 210.539 55.668C210.789 55.1523 211.156 54.7188 211.641 54.3672C212.133 54.0078 212.746 53.7383 213.48 53.5586C214.215 53.3711 215.066 53.2773 216.035 53.2773H217.992ZM229.758 48.3203V50.7109H222.375V48.3203H229.758ZM224.203 45.1914H227.578V57.1797C227.578 57.5469 227.625 57.8281 227.719 58.0234C227.82 58.2188 227.969 58.3555 228.164 58.4336C228.359 58.5039 228.605 58.5391 228.902 58.5391C229.113 58.5391 229.301 58.5312 229.465 58.5156C229.637 58.4922 229.781 58.4688 229.898 58.4453L229.91 60.9297C229.621 61.0234 229.309 61.0977 228.973 61.1523C228.637 61.207 228.266 61.2344 227.859 61.2344C227.117 61.2344 226.469 61.1133 225.914 60.8711C225.367 60.6211 224.945 60.2227 224.648 59.6758C224.352 59.1289 224.203 58.4102 224.203 57.5195V45.1914Z" fill="#888888"/>
<path d="M119.086 112.672V119H100.898V112.672H119.086ZM103.828 84.875V119H95.6016V84.875H103.828ZM116.742 98.4219V104.539H100.898V98.4219H116.742ZM119.156 84.875V91.2266H100.898V84.875H119.156ZM128.789 93.6406L132.352 100.625L136.031 93.6406H144.234L137.578 105.992L144.586 119H136.312L132.352 111.5L128.414 119H120.141L127.148 105.992L120.516 93.6406H128.789ZM160.195 93.6406V99.125H144.914V93.6406H160.195ZM148.125 87.3359H156.023V110.727C156.023 111.398 156.102 111.922 156.258 112.297C156.414 112.656 156.68 112.914 157.055 113.07C157.445 113.211 157.961 113.281 158.602 113.281C159.055 113.281 159.43 113.273 159.727 113.258C160.023 113.227 160.305 113.188 160.57 113.141V118.789C159.898 119.008 159.195 119.172 158.461 119.281C157.727 119.406 156.945 119.469 156.117 119.469C154.43 119.469 152.984 119.203 151.781 118.672C150.594 118.141 149.688 117.305 149.062 116.164C148.438 115.023 148.125 113.539 148.125 111.711V87.3359ZM171.305 99.9219V119H163.406V93.6406H170.789L171.305 99.9219ZM178.805 93.4531L178.664 100.789C178.352 100.758 177.93 100.719 177.398 100.672C176.867 100.625 176.422 100.602 176.062 100.602C175.141 100.602 174.344 100.711 173.672 100.93C173.016 101.133 172.469 101.445 172.031 101.867C171.609 102.273 171.297 102.789 171.094 103.414C170.906 104.039 170.82 104.766 170.836 105.594L169.406 104.656C169.406 102.953 169.57 101.406 169.898 100.016C170.242 98.6094 170.727 97.3984 171.352 96.3828C171.977 95.3516 172.734 94.5625 173.625 94.0156C174.516 93.4531 175.516 93.1719 176.625 93.1719C177.016 93.1719 177.398 93.1953 177.773 93.2422C178.164 93.2891 178.508 93.3594 178.805 93.4531ZM193.992 112.625V102.172C193.992 101.453 193.891 100.836 193.688 100.32C193.484 99.8047 193.164 99.4062 192.727 99.125C192.289 98.8281 191.703 98.6797 190.969 98.6797C190.375 98.6797 189.867 98.7812 189.445 98.9844C189.023 99.1875 188.703 99.4922 188.484 99.8984C188.266 100.305 188.156 100.82 188.156 101.445H180.258C180.258 100.273 180.516 99.1875 181.031 98.1875C181.562 97.1719 182.312 96.2891 183.281 95.5391C184.266 94.7891 185.438 94.2109 186.797 93.8047C188.172 93.3828 189.703 93.1719 191.391 93.1719C193.406 93.1719 195.203 93.5078 196.781 94.1797C198.375 94.8516 199.633 95.8594 200.555 97.2031C201.477 98.5312 201.938 100.203 201.938 102.219V112.602C201.938 114.258 202.031 115.516 202.219 116.375C202.406 117.219 202.672 117.961 203.016 118.602V119H195.094C194.719 118.219 194.438 117.266 194.25 116.141C194.078 115 193.992 113.828 193.992 112.625ZM194.953 103.508L195 107.727H191.508C190.773 107.727 190.148 107.828 189.633 108.031C189.133 108.234 188.727 108.516 188.414 108.875C188.117 109.219 187.898 109.609 187.758 110.047C187.633 110.484 187.57 110.945 187.57 111.43C187.57 111.898 187.68 112.32 187.898 112.695C188.133 113.055 188.445 113.336 188.836 113.539C189.227 113.742 189.664 113.844 190.148 113.844C191.023 113.844 191.766 113.68 192.375 113.352C193 113.008 193.477 112.594 193.805 112.109C194.133 111.625 194.297 111.172 194.297 110.75L196.031 113.984C195.719 114.609 195.359 115.242 194.953 115.883C194.562 116.523 194.07 117.117 193.477 117.664C192.898 118.195 192.188 118.633 191.344 118.977C190.5 119.305 189.477 119.469 188.273 119.469C186.711 119.469 185.273 119.148 183.961 118.508C182.664 117.867 181.625 116.977 180.844 115.836C180.062 114.68 179.672 113.352 179.672 111.852C179.672 110.539 179.906 109.367 180.375 108.336C180.859 107.305 181.586 106.43 182.555 105.711C183.523 104.992 184.758 104.445 186.258 104.07C187.758 103.695 189.523 103.508 191.555 103.508H194.953ZM219.609 111.875C219.609 111.438 219.461 111.062 219.164 110.75C218.883 110.422 218.383 110.125 217.664 109.859C216.945 109.578 215.938 109.297 214.641 109.016C213.406 108.75 212.242 108.398 211.148 107.961C210.07 107.523 209.125 106.992 208.312 106.367C207.5 105.742 206.859 105 206.391 104.141C205.938 103.281 205.711 102.297 205.711 101.188C205.711 100.109 205.938 99.0938 206.391 98.1406C206.859 97.1719 207.539 96.3203 208.43 95.5859C209.336 94.8359 210.438 94.25 211.734 93.8281C213.031 93.3906 214.508 93.1719 216.164 93.1719C218.445 93.1719 220.414 93.5234 222.07 94.2266C223.727 94.9141 225 95.8828 225.891 97.1328C226.797 98.3672 227.25 99.7969 227.25 101.422H219.352C219.352 100.781 219.242 100.234 219.023 99.7812C218.82 99.3281 218.484 98.9844 218.016 98.75C217.547 98.5 216.922 98.375 216.141 98.375C215.594 98.375 215.094 98.4766 214.641 98.6797C214.203 98.8828 213.852 99.1641 213.586 99.5234C213.32 99.8828 213.188 100.305 213.188 100.789C213.188 101.133 213.266 101.445 213.422 101.727C213.594 101.992 213.852 102.242 214.195 102.477C214.539 102.695 214.977 102.898 215.508 103.086C216.039 103.258 216.68 103.414 217.43 103.555C219.133 103.867 220.727 104.312 222.211 104.891C223.695 105.469 224.898 106.289 225.82 107.352C226.758 108.414 227.227 109.844 227.227 111.641C227.227 112.766 226.969 113.805 226.453 114.758C225.938 115.695 225.195 116.523 224.227 117.242C223.258 117.945 222.094 118.492 220.734 118.883C219.375 119.273 217.844 119.469 216.141 119.469C213.719 119.469 211.672 119.039 210 118.18C208.328 117.305 207.062 116.211 206.203 114.898C205.359 113.57 204.938 112.227 204.938 110.867H212.297C212.328 111.648 212.516 112.289 212.859 112.789C213.219 113.289 213.695 113.656 214.289 113.891C214.883 114.125 215.57 114.242 216.352 114.242C217.07 114.242 217.664 114.141 218.133 113.938C218.617 113.734 218.984 113.461 219.234 113.117C219.484 112.758 219.609 112.344 219.609 111.875Z" fill="black"/>
<path d="M1134 0H1348C1356.28 0 1363 6.71573 1363 15V148C1363 156.284 1356.28 163 1348 163H1134V0Z" fill="#FF914D"/>
<path d="M1212.5 117.5L1212.5 45.5L1284.5 45.5L1284.5 117.5L1212.5 117.5Z" fill="white" fill-opacity="0.01"/>
<path d="M1221.5 81.5125L1221.5 108.5L1275.5 108.5L1275.5 81.5" stroke="white" stroke-width="7.24" stroke-linecap="round" stroke-linejoin="round"/>
<path d="M1262 68L1248.5 54.5L1235 68" stroke="white" stroke-width="7.24" stroke-linecap="round" stroke-linejoin="round"/>
<path d="M1248.49 93.5L1248.49 54.5" stroke="white" stroke-width="7.24" stroke-linecap="round" stroke-linejoin="round"/>
</svg>
