<svg width="1363" height="163" viewBox="0 0 1363 163" fill="none" xmlns="http://www.w3.org/2000/svg">
<path d="M0 15C0 6.71573 6.71573 0 15 0H37V163H15C6.71573 163 0 156.284 0 148V15Z" fill="#424242"/>
<rect width="1097" height="163" transform="translate(37)" fill="#F0F0F0"/>
<path d="M101.906 53.9219L94.3945 51.2383V48.0859L104.602 52.375V54.6367L101.906 53.9219ZM94.3945 56.1719L101.918 53.4297L104.602 52.7852V55.0352L94.3945 59.3242V56.1719ZM124.277 50.8867V53.6289H115.371V50.8867H124.277ZM116.414 43.9375V61H112.898V43.9375H116.414ZM126.785 43.9375V61H123.281V43.9375H126.785ZM135.469 61.2344C134.484 61.2344 133.602 61.0781 132.82 60.7656C132.039 60.4453 131.375 60.0039 130.828 59.4414C130.289 58.8789 129.875 58.2266 129.586 57.4844C129.297 56.7344 129.152 55.9375 129.152 55.0938V54.625C129.152 53.6641 129.289 52.7852 129.562 51.9883C129.836 51.1914 130.227 50.5 130.734 49.9141C131.25 49.3281 131.875 48.8789 132.609 48.5664C133.344 48.2461 134.172 48.0859 135.094 48.0859C135.992 48.0859 136.789 48.2344 137.484 48.5312C138.18 48.8281 138.762 49.25 139.23 49.7969C139.707 50.3438 140.066 51 140.309 51.7656C140.551 52.5234 140.672 53.3672 140.672 54.2969V55.7031H130.594V53.4531H137.355V53.1953C137.355 52.7266 137.27 52.3086 137.098 51.9414C136.934 51.5664 136.684 51.2695 136.348 51.0508C136.012 50.832 135.582 50.7227 135.059 50.7227C134.613 50.7227 134.23 50.8203 133.91 51.0156C133.59 51.2109 133.328 51.4844 133.125 51.8359C132.93 52.1875 132.781 52.6016 132.68 53.0781C132.586 53.5469 132.539 54.0625 132.539 54.625V55.0938C132.539 55.6016 132.609 56.0703 132.75 56.5C132.898 56.9297 133.105 57.3008 133.371 57.6133C133.645 57.9258 133.973 58.168 134.355 58.3398C134.746 58.5117 135.188 58.5977 135.68 58.5977C136.289 58.5977 136.855 58.4805 137.379 58.2461C137.91 58.0039 138.367 57.6406 138.75 57.1562L140.391 58.9375C140.125 59.3203 139.762 59.6875 139.301 60.0391C138.848 60.3906 138.301 60.6797 137.66 60.9062C137.02 61.125 136.289 61.2344 135.469 61.2344ZM149.438 58.1406V52.4922C149.438 52.0859 149.371 51.7383 149.238 51.4492C149.105 51.1523 148.898 50.9219 148.617 50.7578C148.344 50.5938 147.988 50.5117 147.551 50.5117C147.176 50.5117 146.852 50.5781 146.578 50.7109C146.305 50.8359 146.094 51.0195 145.945 51.2617C145.797 51.4961 145.723 51.7734 145.723 52.0938H142.348C142.348 51.5547 142.473 51.043 142.723 50.5586C142.973 50.0742 143.336 49.6484 143.812 49.2812C144.289 48.9062 144.855 48.6133 145.512 48.4023C146.176 48.1914 146.918 48.0859 147.738 48.0859C148.723 48.0859 149.598 48.25 150.363 48.5781C151.129 48.9062 151.73 49.3984 152.168 50.0547C152.613 50.7109 152.836 51.5312 152.836 52.5156V57.9414C152.836 58.6367 152.879 59.207 152.965 59.6523C153.051 60.0898 153.176 60.4727 153.34 60.8008V61H149.93C149.766 60.6562 149.641 60.2266 149.555 59.7109C149.477 59.1875 149.438 58.6641 149.438 58.1406ZM149.883 53.2773L149.906 55.1875H148.02C147.574 55.1875 147.188 55.2383 146.859 55.3398C146.531 55.4414 146.262 55.5859 146.051 55.7734C145.84 55.9531 145.684 56.1641 145.582 56.4062C145.488 56.6484 145.441 56.9141 145.441 57.2031C145.441 57.4922 145.508 57.7539 145.641 57.9883C145.773 58.2148 145.965 58.3945 146.215 58.5273C146.465 58.6523 146.758 58.7148 147.094 58.7148C147.602 58.7148 148.043 58.6133 148.418 58.4102C148.793 58.207 149.082 57.957 149.285 57.6602C149.496 57.3633 149.605 57.082 149.613 56.8164L150.504 58.2461C150.379 58.5664 150.207 58.8984 149.988 59.2422C149.777 59.5859 149.508 59.9102 149.18 60.2148C148.852 60.5117 148.457 60.7578 147.996 60.9531C147.535 61.1406 146.988 61.2344 146.355 61.2344C145.551 61.2344 144.82 61.0742 144.164 60.7539C143.516 60.4258 143 59.9766 142.617 59.4062C142.242 58.8281 142.055 58.1719 142.055 57.4375C142.055 56.7734 142.18 56.1836 142.43 55.668C142.68 55.1523 143.047 54.7188 143.531 54.3672C144.023 54.0078 144.637 53.7383 145.371 53.5586C146.105 53.3711 146.957 53.2773 147.926 53.2773H149.883ZM158.812 51.0859V61H155.438V48.3203H158.613L158.812 51.0859ZM162.633 48.2383L162.574 51.3672C162.41 51.3438 162.211 51.3242 161.977 51.3086C161.75 51.2852 161.543 51.2734 161.355 51.2734C160.879 51.2734 160.465 51.3359 160.113 51.4609C159.77 51.5781 159.48 51.7539 159.246 51.9883C159.02 52.2227 158.848 52.5078 158.73 52.8438C158.621 53.1797 158.559 53.5625 158.543 53.9922L157.863 53.7812C157.863 52.9609 157.945 52.207 158.109 51.5195C158.273 50.8242 158.512 50.2188 158.824 49.7031C159.145 49.1875 159.535 48.7891 159.996 48.5078C160.457 48.2266 160.984 48.0859 161.578 48.0859C161.766 48.0859 161.957 48.1016 162.152 48.1328C162.348 48.1562 162.508 48.1914 162.633 48.2383ZM171.023 48.3203V50.7109H163.641V48.3203H171.023ZM165.469 45.1914H168.844V57.1797C168.844 57.5469 168.891 57.8281 168.984 58.0234C169.086 58.2188 169.234 58.3555 169.43 58.4336C169.625 58.5039 169.871 58.5391 170.168 58.5391C170.379 58.5391 170.566 58.5312 170.73 58.5156C170.902 58.4922 171.047 58.4688 171.164 58.4453L171.176 60.9297C170.887 61.0234 170.574 61.0977 170.238 61.1523C169.902 61.207 169.531 61.2344 169.125 61.2344C168.383 61.2344 167.734 61.1133 167.18 60.8711C166.633 60.6211 166.211 60.2227 165.914 59.6758C165.617 59.1289 165.469 58.4102 165.469 57.5195V45.1914ZM179.602 52.3516V55H172.98V52.3516H179.602ZM189.305 53.5117H184.922L184.898 51.0977H188.578C189.227 51.0977 189.758 51.0156 190.172 50.8516C190.586 50.6797 190.895 50.4336 191.098 50.1133C191.309 49.7852 191.414 49.3867 191.414 48.918C191.414 48.3867 191.312 47.957 191.109 47.6289C190.914 47.3008 190.605 47.0625 190.184 46.9141C189.77 46.7656 189.234 46.6914 188.578 46.6914H186.141V61H182.625V43.9375H188.578C189.57 43.9375 190.457 44.0312 191.238 44.2188C192.027 44.4062 192.695 44.6914 193.242 45.0742C193.789 45.457 194.207 45.9414 194.496 46.5273C194.785 47.1055 194.93 47.793 194.93 48.5898C194.93 49.293 194.77 49.9414 194.449 50.5352C194.137 51.1289 193.641 51.6133 192.961 51.9883C192.289 52.3633 191.41 52.5703 190.324 52.6094L189.305 53.5117ZM189.152 61H183.961L185.332 58.2578H189.152C189.77 58.2578 190.273 58.1602 190.664 57.9648C191.055 57.7617 191.344 57.4883 191.531 57.1445C191.719 56.8008 191.812 56.4062 191.812 55.9609C191.812 55.4609 191.727 55.0273 191.555 54.6602C191.391 54.293 191.125 54.0117 190.758 53.8164C190.391 53.6133 189.906 53.5117 189.305 53.5117H185.918L185.941 51.0977H190.16L190.969 52.0469C192.008 52.0312 192.844 52.2148 193.477 52.5977C194.117 52.9727 194.582 53.4609 194.871 54.0625C195.168 54.6641 195.316 55.3086 195.316 55.9961C195.316 57.0898 195.078 58.0117 194.602 58.7617C194.125 59.5039 193.426 60.0625 192.504 60.4375C191.59 60.8125 190.473 61 189.152 61ZM203.578 61.2344C202.594 61.2344 201.711 61.0781 200.93 60.7656C200.148 60.4453 199.484 60.0039 198.938 59.4414C198.398 58.8789 197.984 58.2266 197.695 57.4844C197.406 56.7344 197.262 55.9375 197.262 55.0938V54.625C197.262 53.6641 197.398 52.7852 197.672 51.9883C197.945 51.1914 198.336 50.5 198.844 49.9141C199.359 49.3281 199.984 48.8789 200.719 48.5664C201.453 48.2461 202.281 48.0859 203.203 48.0859C204.102 48.0859 204.898 48.2344 205.594 48.5312C206.289 48.8281 206.871 49.25 207.34 49.7969C207.816 50.3438 208.176 51 208.418 51.7656C208.66 52.5234 208.781 53.3672 208.781 54.2969V55.7031H198.703V53.4531H205.465V53.1953C205.465 52.7266 205.379 52.3086 205.207 51.9414C205.043 51.5664 204.793 51.2695 204.457 51.0508C204.121 50.832 203.691 50.7227 203.168 50.7227C202.723 50.7227 202.34 50.8203 202.02 51.0156C201.699 51.2109 201.438 51.4844 201.234 51.8359C201.039 52.1875 200.891 52.6016 200.789 53.0781C200.695 53.5469 200.648 54.0625 200.648 54.625V55.0938C200.648 55.6016 200.719 56.0703 200.859 56.5C201.008 56.9297 201.215 57.3008 201.48 57.6133C201.754 57.9258 202.082 58.168 202.465 58.3398C202.855 58.5117 203.297 58.5977 203.789 58.5977C204.398 58.5977 204.965 58.4805 205.488 58.2461C206.02 58.0039 206.477 57.6406 206.859 57.1562L208.5 58.9375C208.234 59.3203 207.871 59.6875 207.41 60.0391C206.957 60.3906 206.41 60.6797 205.77 60.9062C205.129 61.125 204.398 61.2344 203.578 61.2344ZM217.547 58.1406V52.4922C217.547 52.0859 217.48 51.7383 217.348 51.4492C217.215 51.1523 217.008 50.9219 216.727 50.7578C216.453 50.5938 216.098 50.5117 215.66 50.5117C215.285 50.5117 214.961 50.5781 214.688 50.7109C214.414 50.8359 214.203 51.0195 214.055 51.2617C213.906 51.4961 213.832 51.7734 213.832 52.0938H210.457C210.457 51.5547 210.582 51.043 210.832 50.5586C211.082 50.0742 211.445 49.6484 211.922 49.2812C212.398 48.9062 212.965 48.6133 213.621 48.4023C214.285 48.1914 215.027 48.0859 215.848 48.0859C216.832 48.0859 217.707 48.25 218.473 48.5781C219.238 48.9062 219.84 49.3984 220.277 50.0547C220.723 50.7109 220.945 51.5312 220.945 52.5156V57.9414C220.945 58.6367 220.988 59.207 221.074 59.6523C221.16 60.0898 221.285 60.4727 221.449 60.8008V61H218.039C217.875 60.6562 217.75 60.2266 217.664 59.7109C217.586 59.1875 217.547 58.6641 217.547 58.1406ZM217.992 53.2773L218.016 55.1875H216.129C215.684 55.1875 215.297 55.2383 214.969 55.3398C214.641 55.4414 214.371 55.5859 214.16 55.7734C213.949 55.9531 213.793 56.1641 213.691 56.4062C213.598 56.6484 213.551 56.9141 213.551 57.2031C213.551 57.4922 213.617 57.7539 213.75 57.9883C213.883 58.2148 214.074 58.3945 214.324 58.5273C214.574 58.6523 214.867 58.7148 215.203 58.7148C215.711 58.7148 216.152 58.6133 216.527 58.4102C216.902 58.207 217.191 57.957 217.395 57.6602C217.605 57.3633 217.715 57.082 217.723 56.8164L218.613 58.2461C218.488 58.5664 218.316 58.8984 218.098 59.2422C217.887 59.5859 217.617 59.9102 217.289 60.2148C216.961 60.5117 216.566 60.7578 216.105 60.9531C215.645 61.1406 215.098 61.2344 214.465 61.2344C213.66 61.2344 212.93 61.0742 212.273 60.7539C211.625 60.4258 211.109 59.9766 210.727 59.4062C210.352 58.8281 210.164 58.1719 210.164 57.4375C210.164 56.7734 210.289 56.1836 210.539 55.668C210.789 55.1523 211.156 54.7188 211.641 54.3672C212.133 54.0078 212.746 53.7383 213.48 53.5586C214.215 53.3711 215.066 53.2773 216.035 53.2773H217.992ZM229.758 48.3203V50.7109H222.375V48.3203H229.758ZM224.203 45.1914H227.578V57.1797C227.578 57.5469 227.625 57.8281 227.719 58.0234C227.82 58.2188 227.969 58.3555 228.164 58.4336C228.359 58.5039 228.605 58.5391 228.902 58.5391C229.113 58.5391 229.301 58.5312 229.465 58.5156C229.637 58.4922 229.781 58.4688 229.898 58.4453L229.91 60.9297C229.621 61.0234 229.309 61.0977 228.973 61.1523C228.637 61.207 228.266 61.2344 227.859 61.2344C227.117 61.2344 226.469 61.1133 225.914 60.8711C225.367 60.6211 224.945 60.2227 224.648 59.6758C224.352 59.1289 224.203 58.4102 224.203 57.5195V45.1914Z" fill="#888888"/>
<path d="M106.688 119H99.1172L99.1641 112.672H106.688C108.25 112.672 109.57 112.297 110.648 111.547C111.742 110.797 112.57 109.68 113.133 108.195C113.711 106.695 114 104.852 114 102.664V101.188C114 99.5469 113.836 98.1094 113.508 96.875C113.195 95.625 112.727 94.5859 112.102 93.7578C111.477 92.9141 110.695 92.2812 109.758 91.8594C108.836 91.4375 107.773 91.2266 106.57 91.2266H98.9766V84.875H106.57C108.883 84.875 111 85.2734 112.922 86.0703C114.859 86.8516 116.531 87.9766 117.938 89.4453C119.359 90.8984 120.453 92.625 121.219 94.625C122 96.6094 122.391 98.8125 122.391 101.234V102.664C122.391 105.07 122 107.273 121.219 109.273C120.453 111.273 119.367 113 117.961 114.453C116.555 115.906 114.891 117.031 112.969 117.828C111.062 118.609 108.969 119 106.688 119ZM103.828 84.875V119H95.6016V84.875H103.828ZM138.586 119.469C136.523 119.469 134.68 119.148 133.055 118.508C131.43 117.852 130.055 116.953 128.93 115.812C127.82 114.672 126.969 113.359 126.375 111.875C125.797 110.391 125.508 108.82 125.508 107.164V106.273C125.508 104.414 125.766 102.695 126.281 101.117C126.797 99.5234 127.562 98.1328 128.578 96.9453C129.594 95.7578 130.867 94.8359 132.398 94.1797C133.93 93.5078 135.711 93.1719 137.742 93.1719C139.539 93.1719 141.148 93.4609 142.57 94.0391C143.992 94.6172 145.195 95.4453 146.18 96.5234C147.18 97.6016 147.938 98.9062 148.453 100.438C148.984 101.969 149.25 103.688 149.25 105.594V108.805H128.531V103.859H141.539V103.25C141.555 102.406 141.406 101.688 141.094 101.094C140.797 100.5 140.359 100.047 139.781 99.7344C139.203 99.4219 138.5 99.2656 137.672 99.2656C136.812 99.2656 136.102 99.4531 135.539 99.8281C134.992 100.203 134.562 100.719 134.25 101.375C133.953 102.016 133.742 102.758 133.617 103.602C133.492 104.445 133.43 105.336 133.43 106.273V107.164C133.43 108.102 133.555 108.953 133.805 109.719C134.07 110.484 134.445 111.141 134.93 111.688C135.43 112.219 136.023 112.633 136.711 112.93C137.414 113.227 138.211 113.375 139.102 113.375C140.18 113.375 141.242 113.172 142.289 112.766C143.336 112.359 144.234 111.688 144.984 110.75L148.57 115.016C148.055 115.75 147.32 116.461 146.367 117.148C145.43 117.836 144.305 118.398 142.992 118.836C141.68 119.258 140.211 119.469 138.586 119.469ZM160.43 99.0078V119H152.531V93.6406H159.938L160.43 99.0078ZM159.469 105.453L157.664 105.5C157.664 103.719 157.875 102.078 158.297 100.578C158.719 99.0781 159.344 97.7734 160.172 96.6641C161 95.5547 162.016 94.6953 163.219 94.0859C164.438 93.4766 165.844 93.1719 167.438 93.1719C168.547 93.1719 169.555 93.3438 170.461 93.6875C171.367 94.0156 172.148 94.5391 172.805 95.2578C173.461 95.9609 173.961 96.8828 174.305 98.0234C174.664 99.1484 174.844 100.5 174.844 102.078V119H166.945V103.086C166.945 102.008 166.82 101.195 166.57 100.648C166.336 100.102 165.992 99.7344 165.539 99.5469C165.086 99.3594 164.531 99.2656 163.875 99.2656C163.188 99.2656 162.57 99.4219 162.023 99.7344C161.477 100.047 161.008 100.484 160.617 101.047C160.242 101.594 159.953 102.242 159.75 102.992C159.562 103.742 159.469 104.562 159.469 105.453ZM173.953 105.453L171.75 105.5C171.75 103.719 171.945 102.078 172.336 100.578C172.742 99.0781 173.344 97.7734 174.141 96.6641C174.953 95.5547 175.961 94.6953 177.164 94.0859C178.367 93.4766 179.766 93.1719 181.359 93.1719C182.516 93.1719 183.578 93.3438 184.547 93.6875C185.516 94.0312 186.352 94.5859 187.055 95.3516C187.758 96.1172 188.305 97.1328 188.695 98.3984C189.086 99.6484 189.281 101.195 189.281 103.039V119H181.359V103.039C181.359 101.992 181.234 101.203 180.984 100.672C180.75 100.125 180.406 99.7578 179.953 99.5703C179.5 99.3672 178.961 99.2656 178.336 99.2656C177.586 99.2656 176.938 99.4219 176.391 99.7344C175.844 100.047 175.383 100.484 175.008 101.047C174.648 101.594 174.383 102.242 174.211 102.992C174.039 103.742 173.953 104.562 173.953 105.453ZM192.82 106.578V106.086C192.82 104.227 193.086 102.516 193.617 100.953C194.148 99.375 194.93 98.0078 195.961 96.8516C196.992 95.6953 198.266 94.7969 199.781 94.1562C201.297 93.5 203.047 93.1719 205.031 93.1719C207.031 93.1719 208.789 93.5 210.305 94.1562C211.836 94.7969 213.117 95.6953 214.148 96.8516C215.18 98.0078 215.961 99.375 216.492 100.953C217.023 102.516 217.289 104.227 217.289 106.086V106.578C217.289 108.422 217.023 110.133 216.492 111.711C215.961 113.273 215.18 114.641 214.148 115.812C213.117 116.969 211.844 117.867 210.328 118.508C208.812 119.148 207.062 119.469 205.078 119.469C203.094 119.469 201.336 119.148 199.805 118.508C198.273 117.867 196.992 116.969 195.961 115.812C194.93 114.641 194.148 113.273 193.617 111.711C193.086 110.133 192.82 108.422 192.82 106.578ZM200.719 106.086V106.578C200.719 107.531 200.789 108.422 200.93 109.25C201.07 110.078 201.305 110.805 201.633 111.43C201.961 112.039 202.406 112.516 202.969 112.859C203.531 113.203 204.234 113.375 205.078 113.375C205.906 113.375 206.594 113.203 207.141 112.859C207.703 112.516 208.148 112.039 208.477 111.43C208.805 110.805 209.039 110.078 209.18 109.25C209.32 108.422 209.391 107.531 209.391 106.578V106.086C209.391 105.164 209.32 104.297 209.18 103.484C209.039 102.656 208.805 101.93 208.477 101.305C208.148 100.664 207.703 100.164 207.141 99.8047C206.578 99.4453 205.875 99.2656 205.031 99.2656C204.203 99.2656 203.508 99.4453 202.945 99.8047C202.398 100.164 201.961 100.664 201.633 101.305C201.305 101.93 201.07 102.656 200.93 103.484C200.789 104.297 200.719 105.164 200.719 106.086Z" fill="black"/>
<path d="M1134 0H1348C1356.28 0 1363 6.71573 1363 15V148C1363 156.284 1356.28 163 1348 163H1134V0Z" fill="#FF914D"/>
<path d="M1280.07 47.5H1216.93L1214.5 49.9286V113.071L1216.93 115.5H1280.07L1282.5 113.071V49.9286L1280.07 47.5ZM1277.64 110.643H1233.93V100.929H1245.1C1246.56 103.843 1249.96 105.786 1253.36 105.786C1258.7 105.786 1263.07 101.414 1263.07 96.0714C1263.07 90.7286 1258.7 86.3571 1253.36 86.3571C1248.01 86.3571 1243.64 90.7286 1243.64 96.0714H1229.07V110.643H1219.36V52.3571H1229.07V63.5286C1226.16 64.9857 1224.21 68.3857 1224.21 71.7857C1224.21 77.1286 1228.59 81.5 1233.93 81.5C1239.27 81.5 1243.64 77.1286 1243.64 71.7857H1253.36C1253.36 77.1286 1257.73 81.5 1263.07 81.5C1268.41 81.5 1272.79 77.1286 1272.79 71.7857C1272.79 66.4429 1268.41 62.0714 1263.07 62.0714C1259.67 62.0714 1256.27 64.0143 1254.81 66.9286H1242.19C1240.73 64.0143 1237.33 62.0714 1233.93 62.0714V52.3571H1277.64V110.643ZM1248.5 96.0714C1248.5 93.1571 1250.44 91.2143 1253.36 91.2143C1256.27 91.2143 1258.21 93.1571 1258.21 96.0714C1258.21 98.9857 1256.27 100.929 1253.36 100.929C1250.44 100.929 1248.5 98.9857 1248.5 96.0714ZM1233.93 66.9286C1236.84 66.9286 1238.79 68.8714 1238.79 71.7857C1238.79 74.7 1236.84 76.6429 1233.93 76.6429C1231.01 76.6429 1229.07 74.7 1229.07 71.7857C1229.07 68.8714 1231.01 66.9286 1233.93 66.9286ZM1263.07 66.9286C1265.99 66.9286 1267.93 68.8714 1267.93 71.7857C1267.93 74.7 1265.99 76.6429 1263.07 76.6429C1260.16 76.6429 1258.21 74.7 1258.21 71.7857C1258.21 68.8714 1260.16 66.9286 1263.07 66.9286Z" fill="white"/>
</svg>
