<svg width="1363" height="163" viewBox="0 0 1363 163" fill="none" xmlns="http://www.w3.org/2000/svg">
<path d="M0 15C0 6.71573 6.71573 0 15 0H37V163H15C6.71573 163 0 156.284 0 148V15Z" fill="#424242"/>
<rect width="1097" height="163" transform="translate(37)" fill="#F0F0F0"/>
<path d="M101.906 53.9219L94.3945 51.2383V48.0859L104.602 52.375V54.6367L101.906 53.9219ZM94.3945 56.1719L101.918 53.4297L104.602 52.7852V55.0352L94.3945 59.3242V56.1719ZM124.277 50.8867V53.6289H115.371V50.8867H124.277ZM116.414 43.9375V61H112.898V43.9375H116.414ZM126.785 43.9375V61H123.281V43.9375H126.785ZM135.469 61.2344C134.484 61.2344 133.602 61.0781 132.82 60.7656C132.039 60.4453 131.375 60.0039 130.828 59.4414C130.289 58.8789 129.875 58.2266 129.586 57.4844C129.297 56.7344 129.152 55.9375 129.152 55.0938V54.625C129.152 53.6641 129.289 52.7852 129.562 51.9883C129.836 51.1914 130.227 50.5 130.734 49.9141C131.25 49.3281 131.875 48.8789 132.609 48.5664C133.344 48.2461 134.172 48.0859 135.094 48.0859C135.992 48.0859 136.789 48.2344 137.484 48.5312C138.18 48.8281 138.762 49.25 139.23 49.7969C139.707 50.3438 140.066 51 140.309 51.7656C140.551 52.5234 140.672 53.3672 140.672 54.2969V55.7031H130.594V53.4531H137.355V53.1953C137.355 52.7266 137.27 52.3086 137.098 51.9414C136.934 51.5664 136.684 51.2695 136.348 51.0508C136.012 50.832 135.582 50.7227 135.059 50.7227C134.613 50.7227 134.23 50.8203 133.91 51.0156C133.59 51.2109 133.328 51.4844 133.125 51.8359C132.93 52.1875 132.781 52.6016 132.68 53.0781C132.586 53.5469 132.539 54.0625 132.539 54.625V55.0938C132.539 55.6016 132.609 56.0703 132.75 56.5C132.898 56.9297 133.105 57.3008 133.371 57.6133C133.645 57.9258 133.973 58.168 134.355 58.3398C134.746 58.5117 135.188 58.5977 135.68 58.5977C136.289 58.5977 136.855 58.4805 137.379 58.2461C137.91 58.0039 138.367 57.6406 138.75 57.1562L140.391 58.9375C140.125 59.3203 139.762 59.6875 139.301 60.0391C138.848 60.3906 138.301 60.6797 137.66 60.9062C137.02 61.125 136.289 61.2344 135.469 61.2344ZM149.438 58.1406V52.4922C149.438 52.0859 149.371 51.7383 149.238 51.4492C149.105 51.1523 148.898 50.9219 148.617 50.7578C148.344 50.5938 147.988 50.5117 147.551 50.5117C147.176 50.5117 146.852 50.5781 146.578 50.7109C146.305 50.8359 146.094 51.0195 145.945 51.2617C145.797 51.4961 145.723 51.7734 145.723 52.0938H142.348C142.348 51.5547 142.473 51.043 142.723 50.5586C142.973 50.0742 143.336 49.6484 143.812 49.2812C144.289 48.9062 144.855 48.6133 145.512 48.4023C146.176 48.1914 146.918 48.0859 147.738 48.0859C148.723 48.0859 149.598 48.25 150.363 48.5781C151.129 48.9062 151.73 49.3984 152.168 50.0547C152.613 50.7109 152.836 51.5312 152.836 52.5156V57.9414C152.836 58.6367 152.879 59.207 152.965 59.6523C153.051 60.0898 153.176 60.4727 153.34 60.8008V61H149.93C149.766 60.6562 149.641 60.2266 149.555 59.7109C149.477 59.1875 149.438 58.6641 149.438 58.1406ZM149.883 53.2773L149.906 55.1875H148.02C147.574 55.1875 147.188 55.2383 146.859 55.3398C146.531 55.4414 146.262 55.5859 146.051 55.7734C145.84 55.9531 145.684 56.1641 145.582 56.4062C145.488 56.6484 145.441 56.9141 145.441 57.2031C145.441 57.4922 145.508 57.7539 145.641 57.9883C145.773 58.2148 145.965 58.3945 146.215 58.5273C146.465 58.6523 146.758 58.7148 147.094 58.7148C147.602 58.7148 148.043 58.6133 148.418 58.4102C148.793 58.207 149.082 57.957 149.285 57.6602C149.496 57.3633 149.605 57.082 149.613 56.8164L150.504 58.2461C150.379 58.5664 150.207 58.8984 149.988 59.2422C149.777 59.5859 149.508 59.9102 149.18 60.2148C148.852 60.5117 148.457 60.7578 147.996 60.9531C147.535 61.1406 146.988 61.2344 146.355 61.2344C145.551 61.2344 144.82 61.0742 144.164 60.7539C143.516 60.4258 143 59.9766 142.617 59.4062C142.242 58.8281 142.055 58.1719 142.055 57.4375C142.055 56.7734 142.18 56.1836 142.43 55.668C142.68 55.1523 143.047 54.7188 143.531 54.3672C144.023 54.0078 144.637 53.7383 145.371 53.5586C146.105 53.3711 146.957 53.2773 147.926 53.2773H149.883ZM158.812 51.0859V61H155.438V48.3203H158.613L158.812 51.0859ZM162.633 48.2383L162.574 51.3672C162.41 51.3438 162.211 51.3242 161.977 51.3086C161.75 51.2852 161.543 51.2734 161.355 51.2734C160.879 51.2734 160.465 51.3359 160.113 51.4609C159.77 51.5781 159.48 51.7539 159.246 51.9883C159.02 52.2227 158.848 52.5078 158.73 52.8438C158.621 53.1797 158.559 53.5625 158.543 53.9922L157.863 53.7812C157.863 52.9609 157.945 52.207 158.109 51.5195C158.273 50.8242 158.512 50.2188 158.824 49.7031C159.145 49.1875 159.535 48.7891 159.996 48.5078C160.457 48.2266 160.984 48.0859 161.578 48.0859C161.766 48.0859 161.957 48.1016 162.152 48.1328C162.348 48.1562 162.508 48.1914 162.633 48.2383ZM171.023 48.3203V50.7109H163.641V48.3203H171.023ZM165.469 45.1914H168.844V57.1797C168.844 57.5469 168.891 57.8281 168.984 58.0234C169.086 58.2188 169.234 58.3555 169.43 58.4336C169.625 58.5039 169.871 58.5391 170.168 58.5391C170.379 58.5391 170.566 58.5312 170.73 58.5156C170.902 58.4922 171.047 58.4688 171.164 58.4453L171.176 60.9297C170.887 61.0234 170.574 61.0977 170.238 61.1523C169.902 61.207 169.531 61.2344 169.125 61.2344C168.383 61.2344 167.734 61.1133 167.18 60.8711C166.633 60.6211 166.211 60.2227 165.914 59.6758C165.617 59.1289 165.469 58.4102 165.469 57.5195V45.1914ZM179.602 52.3516V55H172.98V52.3516H179.602ZM189.305 53.5117H184.922L184.898 51.0977H188.578C189.227 51.0977 189.758 51.0156 190.172 50.8516C190.586 50.6797 190.895 50.4336 191.098 50.1133C191.309 49.7852 191.414 49.3867 191.414 48.918C191.414 48.3867 191.312 47.957 191.109 47.6289C190.914 47.3008 190.605 47.0625 190.184 46.9141C189.77 46.7656 189.234 46.6914 188.578 46.6914H186.141V61H182.625V43.9375H188.578C189.57 43.9375 190.457 44.0312 191.238 44.2188C192.027 44.4062 192.695 44.6914 193.242 45.0742C193.789 45.457 194.207 45.9414 194.496 46.5273C194.785 47.1055 194.93 47.793 194.93 48.5898C194.93 49.293 194.77 49.9414 194.449 50.5352C194.137 51.1289 193.641 51.6133 192.961 51.9883C192.289 52.3633 191.41 52.5703 190.324 52.6094L189.305 53.5117ZM189.152 61H183.961L185.332 58.2578H189.152C189.77 58.2578 190.273 58.1602 190.664 57.9648C191.055 57.7617 191.344 57.4883 191.531 57.1445C191.719 56.8008 191.812 56.4062 191.812 55.9609C191.812 55.4609 191.727 55.0273 191.555 54.6602C191.391 54.293 191.125 54.0117 190.758 53.8164C190.391 53.6133 189.906 53.5117 189.305 53.5117H185.918L185.941 51.0977H190.16L190.969 52.0469C192.008 52.0312 192.844 52.2148 193.477 52.5977C194.117 52.9727 194.582 53.4609 194.871 54.0625C195.168 54.6641 195.316 55.3086 195.316 55.9961C195.316 57.0898 195.078 58.0117 194.602 58.7617C194.125 59.5039 193.426 60.0625 192.504 60.4375C191.59 60.8125 190.473 61 189.152 61ZM203.578 61.2344C202.594 61.2344 201.711 61.0781 200.93 60.7656C200.148 60.4453 199.484 60.0039 198.938 59.4414C198.398 58.8789 197.984 58.2266 197.695 57.4844C197.406 56.7344 197.262 55.9375 197.262 55.0938V54.625C197.262 53.6641 197.398 52.7852 197.672 51.9883C197.945 51.1914 198.336 50.5 198.844 49.9141C199.359 49.3281 199.984 48.8789 200.719 48.5664C201.453 48.2461 202.281 48.0859 203.203 48.0859C204.102 48.0859 204.898 48.2344 205.594 48.5312C206.289 48.8281 206.871 49.25 207.34 49.7969C207.816 50.3438 208.176 51 208.418 51.7656C208.66 52.5234 208.781 53.3672 208.781 54.2969V55.7031H198.703V53.4531H205.465V53.1953C205.465 52.7266 205.379 52.3086 205.207 51.9414C205.043 51.5664 204.793 51.2695 204.457 51.0508C204.121 50.832 203.691 50.7227 203.168 50.7227C202.723 50.7227 202.34 50.8203 202.02 51.0156C201.699 51.2109 201.438 51.4844 201.234 51.8359C201.039 52.1875 200.891 52.6016 200.789 53.0781C200.695 53.5469 200.648 54.0625 200.648 54.625V55.0938C200.648 55.6016 200.719 56.0703 200.859 56.5C201.008 56.9297 201.215 57.3008 201.48 57.6133C201.754 57.9258 202.082 58.168 202.465 58.3398C202.855 58.5117 203.297 58.5977 203.789 58.5977C204.398 58.5977 204.965 58.4805 205.488 58.2461C206.02 58.0039 206.477 57.6406 206.859 57.1562L208.5 58.9375C208.234 59.3203 207.871 59.6875 207.41 60.0391C206.957 60.3906 206.41 60.6797 205.77 60.9062C205.129 61.125 204.398 61.2344 203.578 61.2344ZM217.547 58.1406V52.4922C217.547 52.0859 217.48 51.7383 217.348 51.4492C217.215 51.1523 217.008 50.9219 216.727 50.7578C216.453 50.5938 216.098 50.5117 215.66 50.5117C215.285 50.5117 214.961 50.5781 214.688 50.7109C214.414 50.8359 214.203 51.0195 214.055 51.2617C213.906 51.4961 213.832 51.7734 213.832 52.0938H210.457C210.457 51.5547 210.582 51.043 210.832 50.5586C211.082 50.0742 211.445 49.6484 211.922 49.2812C212.398 48.9062 212.965 48.6133 213.621 48.4023C214.285 48.1914 215.027 48.0859 215.848 48.0859C216.832 48.0859 217.707 48.25 218.473 48.5781C219.238 48.9062 219.84 49.3984 220.277 50.0547C220.723 50.7109 220.945 51.5312 220.945 52.5156V57.9414C220.945 58.6367 220.988 59.207 221.074 59.6523C221.16 60.0898 221.285 60.4727 221.449 60.8008V61H218.039C217.875 60.6562 217.75 60.2266 217.664 59.7109C217.586 59.1875 217.547 58.6641 217.547 58.1406ZM217.992 53.2773L218.016 55.1875H216.129C215.684 55.1875 215.297 55.2383 214.969 55.3398C214.641 55.4414 214.371 55.5859 214.16 55.7734C213.949 55.9531 213.793 56.1641 213.691 56.4062C213.598 56.6484 213.551 56.9141 213.551 57.2031C213.551 57.4922 213.617 57.7539 213.75 57.9883C213.883 58.2148 214.074 58.3945 214.324 58.5273C214.574 58.6523 214.867 58.7148 215.203 58.7148C215.711 58.7148 216.152 58.6133 216.527 58.4102C216.902 58.207 217.191 57.957 217.395 57.6602C217.605 57.3633 217.715 57.082 217.723 56.8164L218.613 58.2461C218.488 58.5664 218.316 58.8984 218.098 59.2422C217.887 59.5859 217.617 59.9102 217.289 60.2148C216.961 60.5117 216.566 60.7578 216.105 60.9531C215.645 61.1406 215.098 61.2344 214.465 61.2344C213.66 61.2344 212.93 61.0742 212.273 60.7539C211.625 60.4258 211.109 59.9766 210.727 59.4062C210.352 58.8281 210.164 58.1719 210.164 57.4375C210.164 56.7734 210.289 56.1836 210.539 55.668C210.789 55.1523 211.156 54.7188 211.641 54.3672C212.133 54.0078 212.746 53.7383 213.48 53.5586C214.215 53.3711 215.066 53.2773 216.035 53.2773H217.992ZM229.758 48.3203V50.7109H222.375V48.3203H229.758ZM224.203 45.1914H227.578V57.1797C227.578 57.5469 227.625 57.8281 227.719 58.0234C227.82 58.2188 227.969 58.3555 228.164 58.4336C228.359 58.5039 228.605 58.5391 228.902 58.5391C229.113 58.5391 229.301 58.5312 229.465 58.5156C229.637 58.4922 229.781 58.4688 229.898 58.4453L229.91 60.9297C229.621 61.0234 229.309 61.0977 228.973 61.1523C228.637 61.207 228.266 61.2344 227.859 61.2344C227.117 61.2344 226.469 61.1133 225.914 60.8711C225.367 60.6211 224.945 60.2227 224.648 59.6758C224.352 59.1289 224.203 58.4102 224.203 57.5195V45.1914Z" fill="#888888"/>
<path d="M99.6797 84.875H106.383L114 108.617L121.617 84.875H128.32L116.719 119H111.281L99.6797 84.875ZM95.6016 84.875H102.539L103.828 111.031V119H95.6016V84.875ZM125.461 84.875H132.422V119H124.172V111.031L125.461 84.875ZM152.133 112.836V93.6406H160.055V119H152.648L152.133 112.836ZM152.883 107.68L154.945 107.633C154.945 109.336 154.742 110.914 154.336 112.367C153.93 113.805 153.328 115.055 152.531 116.117C151.75 117.18 150.781 118.008 149.625 118.602C148.484 119.18 147.164 119.469 145.664 119.469C144.414 119.469 143.266 119.297 142.219 118.953C141.188 118.594 140.297 118.039 139.547 117.289C138.797 116.523 138.211 115.547 137.789 114.359C137.383 113.156 137.18 111.719 137.18 110.047V93.6406H145.078V110.094C145.078 110.656 145.148 111.141 145.289 111.547C145.43 111.953 145.633 112.297 145.898 112.578C146.164 112.844 146.492 113.047 146.883 113.188C147.289 113.312 147.75 113.375 148.266 113.375C149.453 113.375 150.383 113.125 151.055 112.625C151.727 112.125 152.195 111.445 152.461 110.586C152.742 109.727 152.883 108.758 152.883 107.68ZM177.703 111.875C177.703 111.438 177.555 111.062 177.258 110.75C176.977 110.422 176.477 110.125 175.758 109.859C175.039 109.578 174.031 109.297 172.734 109.016C171.5 108.75 170.336 108.398 169.242 107.961C168.164 107.523 167.219 106.992 166.406 106.367C165.594 105.742 164.953 105 164.484 104.141C164.031 103.281 163.805 102.297 163.805 101.188C163.805 100.109 164.031 99.0938 164.484 98.1406C164.953 97.1719 165.633 96.3203 166.523 95.5859C167.43 94.8359 168.531 94.25 169.828 93.8281C171.125 93.3906 172.602 93.1719 174.258 93.1719C176.539 93.1719 178.508 93.5234 180.164 94.2266C181.82 94.9141 183.094 95.8828 183.984 97.1328C184.891 98.3672 185.344 99.7969 185.344 101.422H177.445C177.445 100.781 177.336 100.234 177.117 99.7812C176.914 99.3281 176.578 98.9844 176.109 98.75C175.641 98.5 175.016 98.375 174.234 98.375C173.688 98.375 173.188 98.4766 172.734 98.6797C172.297 98.8828 171.945 99.1641 171.68 99.5234C171.414 99.8828 171.281 100.305 171.281 100.789C171.281 101.133 171.359 101.445 171.516 101.727C171.688 101.992 171.945 102.242 172.289 102.477C172.633 102.695 173.07 102.898 173.602 103.086C174.133 103.258 174.773 103.414 175.523 103.555C177.227 103.867 178.82 104.312 180.305 104.891C181.789 105.469 182.992 106.289 183.914 107.352C184.852 108.414 185.32 109.844 185.32 111.641C185.32 112.766 185.062 113.805 184.547 114.758C184.031 115.695 183.289 116.523 182.32 117.242C181.352 117.945 180.188 118.492 178.828 118.883C177.469 119.273 175.938 119.469 174.234 119.469C171.812 119.469 169.766 119.039 168.094 118.18C166.422 117.305 165.156 116.211 164.297 114.898C163.453 113.57 163.031 112.227 163.031 110.867H170.391C170.422 111.648 170.609 112.289 170.953 112.789C171.312 113.289 171.789 113.656 172.383 113.891C172.977 114.125 173.664 114.242 174.445 114.242C175.164 114.242 175.758 114.141 176.227 113.938C176.711 113.734 177.078 113.461 177.328 113.117C177.578 112.758 177.703 112.344 177.703 111.875ZM197.367 93.6406V119H189.445V93.6406H197.367ZM188.977 87.1016C188.977 85.9766 189.383 85.0547 190.195 84.3359C191.008 83.6172 192.062 83.2578 193.359 83.2578C194.656 83.2578 195.711 83.6172 196.523 84.3359C197.336 85.0547 197.742 85.9766 197.742 87.1016C197.742 88.2266 197.336 89.1484 196.523 89.8672C195.711 90.5859 194.656 90.9453 193.359 90.9453C192.062 90.9453 191.008 90.5859 190.195 89.8672C189.383 89.1484 188.977 88.2266 188.977 87.1016ZM212.953 113.375C213.688 113.375 214.312 113.242 214.828 112.977C215.359 112.695 215.758 112.305 216.023 111.805C216.305 111.289 216.438 110.672 216.422 109.953H223.852C223.867 111.859 223.398 113.531 222.445 114.969C221.508 116.391 220.227 117.5 218.602 118.297C216.992 119.078 215.172 119.469 213.141 119.469C211.156 119.469 209.422 119.148 207.938 118.508C206.453 117.852 205.211 116.945 204.211 115.789C203.227 114.617 202.484 113.25 201.984 111.688C201.5 110.125 201.258 108.43 201.258 106.602V106.062C201.258 104.234 201.5 102.539 201.984 100.977C202.484 99.3984 203.227 98.0312 204.211 96.875C205.211 95.7031 206.445 94.7969 207.914 94.1562C209.398 93.5 211.125 93.1719 213.094 93.1719C215.203 93.1719 217.062 93.5703 218.672 94.3672C220.297 95.1641 221.57 96.3203 222.492 97.8359C223.414 99.3516 223.867 101.188 223.852 103.344H216.422C216.438 102.578 216.32 101.891 216.07 101.281C215.82 100.672 215.43 100.188 214.898 99.8281C214.383 99.4531 213.719 99.2656 212.906 99.2656C212.094 99.2656 211.438 99.4453 210.938 99.8047C210.438 100.164 210.055 100.664 209.789 101.305C209.539 101.93 209.367 102.648 209.273 103.461C209.195 104.273 209.156 105.141 209.156 106.062V106.602C209.156 107.539 209.195 108.422 209.273 109.25C209.367 110.062 209.547 110.781 209.812 111.406C210.078 112.016 210.461 112.5 210.961 112.859C211.461 113.203 212.125 113.375 212.953 113.375ZM254.016 92.0469L245.695 119H236.859L249.398 84.875H255L254.016 92.0469ZM260.906 119L252.562 92.0469L251.484 84.875H257.156L269.766 119H260.906ZM260.578 106.273V112.625H243.07V106.273H260.578ZM284.836 93.6406V99.125H269.555V93.6406H284.836ZM272.766 87.3359H280.664V110.727C280.664 111.398 280.742 111.922 280.898 112.297C281.055 112.656 281.32 112.914 281.695 113.07C282.086 113.211 282.602 113.281 283.242 113.281C283.695 113.281 284.07 113.273 284.367 113.258C284.664 113.227 284.945 113.188 285.211 113.141V118.789C284.539 119.008 283.836 119.172 283.102 119.281C282.367 119.406 281.586 119.469 280.758 119.469C279.07 119.469 277.625 119.203 276.422 118.672C275.234 118.141 274.328 117.305 273.703 116.164C273.078 115.023 272.766 113.539 272.766 111.711V87.3359ZM301.336 93.6406V99.125H286.055V93.6406H301.336ZM289.266 87.3359H297.164V110.727C297.164 111.398 297.242 111.922 297.398 112.297C297.555 112.656 297.82 112.914 298.195 113.07C298.586 113.211 299.102 113.281 299.742 113.281C300.195 113.281 300.57 113.273 300.867 113.258C301.164 113.227 301.445 113.188 301.711 113.141V118.789C301.039 119.008 300.336 119.172 299.602 119.281C298.867 119.406 298.086 119.469 297.258 119.469C295.57 119.469 294.125 119.203 292.922 118.672C291.734 118.141 290.828 117.305 290.203 116.164C289.578 115.023 289.266 113.539 289.266 111.711V87.3359ZM312.445 99.9219V119H304.547V93.6406H311.93L312.445 99.9219ZM319.945 93.4531L319.805 100.789C319.492 100.758 319.07 100.719 318.539 100.672C318.008 100.625 317.562 100.602 317.203 100.602C316.281 100.602 315.484 100.711 314.812 100.93C314.156 101.133 313.609 101.445 313.172 101.867C312.75 102.273 312.438 102.789 312.234 103.414C312.047 104.039 311.961 104.766 311.977 105.594L310.547 104.656C310.547 102.953 310.711 101.406 311.039 100.016C311.383 98.6094 311.867 97.3984 312.492 96.3828C313.117 95.3516 313.875 94.5625 314.766 94.0156C315.656 93.4531 316.656 93.1719 317.766 93.1719C318.156 93.1719 318.539 93.1953 318.914 93.2422C319.305 93.2891 319.648 93.3594 319.945 93.4531ZM331.008 93.6406V119H323.086V93.6406H331.008ZM322.617 87.1016C322.617 85.9766 323.023 85.0547 323.836 84.3359C324.648 83.6172 325.703 83.2578 327 83.2578C328.297 83.2578 329.352 83.6172 330.164 84.3359C330.977 85.0547 331.383 85.9766 331.383 87.1016C331.383 88.2266 330.977 89.1484 330.164 89.8672C329.352 90.5859 328.297 90.9453 327 90.9453C325.703 90.9453 324.648 90.5859 323.836 89.8672C323.023 89.1484 322.617 88.2266 322.617 87.1016ZM335.953 83H343.852V112.766L343.031 119H335.953V83ZM359.414 106.039V106.531C359.414 108.453 359.219 110.203 358.828 111.781C358.438 113.359 357.836 114.727 357.023 115.883C356.211 117.023 355.188 117.906 353.953 118.531C352.719 119.156 351.258 119.469 349.57 119.469C348.039 119.469 346.727 119.141 345.633 118.484C344.539 117.812 343.625 116.891 342.891 115.719C342.156 114.531 341.562 113.164 341.109 111.617C340.656 110.055 340.297 108.383 340.031 106.602V106.016C340.297 104.25 340.656 102.594 341.109 101.047C341.562 99.4844 342.156 98.1172 342.891 96.9453C343.625 95.7578 344.531 94.8359 345.609 94.1797C346.703 93.5078 348.008 93.1719 349.523 93.1719C351.227 93.1719 352.695 93.4922 353.93 94.1328C355.18 94.7734 356.211 95.6719 357.023 96.8281C357.836 97.9844 358.438 99.3438 358.828 100.906C359.219 102.469 359.414 104.18 359.414 106.039ZM351.516 106.531V106.039C351.516 105.117 351.461 104.25 351.352 103.438C351.242 102.625 351.047 101.906 350.766 101.281C350.484 100.656 350.086 100.164 349.57 99.8047C349.055 99.4453 348.383 99.2656 347.555 99.2656C346.711 99.2656 346 99.4062 345.422 99.6875C344.859 99.9688 344.406 100.375 344.062 100.906C343.734 101.422 343.5 102.062 343.359 102.828C343.219 103.578 343.156 104.43 343.172 105.383V107.234C343.141 108.531 343.258 109.641 343.523 110.562C343.789 111.484 344.25 112.188 344.906 112.672C345.562 113.156 346.461 113.398 347.602 113.398C348.445 113.398 349.125 113.234 349.641 112.906C350.172 112.578 350.57 112.109 350.836 111.5C351.102 110.891 351.281 110.164 351.375 109.32C351.469 108.477 351.516 107.547 351.516 106.531ZM377.742 112.836V93.6406H385.664V119H378.258L377.742 112.836ZM378.492 107.68L380.555 107.633C380.555 109.336 380.352 110.914 379.945 112.367C379.539 113.805 378.938 115.055 378.141 116.117C377.359 117.18 376.391 118.008 375.234 118.602C374.094 119.18 372.773 119.469 371.273 119.469C370.023 119.469 368.875 119.297 367.828 118.953C366.797 118.594 365.906 118.039 365.156 117.289C364.406 116.523 363.82 115.547 363.398 114.359C362.992 113.156 362.789 111.719 362.789 110.047V93.6406H370.688V110.094C370.688 110.656 370.758 111.141 370.898 111.547C371.039 111.953 371.242 112.297 371.508 112.578C371.773 112.844 372.102 113.047 372.492 113.188C372.898 113.312 373.359 113.375 373.875 113.375C375.062 113.375 375.992 113.125 376.664 112.625C377.336 112.125 377.805 111.445 378.07 110.586C378.352 109.727 378.492 108.758 378.492 107.68ZM403.383 93.6406V99.125H388.102V93.6406H403.383ZM391.312 87.3359H399.211V110.727C399.211 111.398 399.289 111.922 399.445 112.297C399.602 112.656 399.867 112.914 400.242 113.07C400.633 113.211 401.148 113.281 401.789 113.281C402.242 113.281 402.617 113.273 402.914 113.258C403.211 113.227 403.492 113.188 403.758 113.141V118.789C403.086 119.008 402.383 119.172 401.648 119.281C400.914 119.406 400.133 119.469 399.305 119.469C397.617 119.469 396.172 119.203 394.969 118.672C393.781 118.141 392.875 117.305 392.25 116.164C391.625 115.023 391.312 113.539 391.312 111.711V87.3359ZM414.867 93.6406V119H406.945V93.6406H414.867ZM406.477 87.1016C406.477 85.9766 406.883 85.0547 407.695 84.3359C408.508 83.6172 409.562 83.2578 410.859 83.2578C412.156 83.2578 413.211 83.6172 414.023 84.3359C414.836 85.0547 415.242 85.9766 415.242 87.1016C415.242 88.2266 414.836 89.1484 414.023 89.8672C413.211 90.5859 412.156 90.9453 410.859 90.9453C409.562 90.9453 408.508 90.5859 407.695 89.8672C406.883 89.1484 406.477 88.2266 406.477 87.1016ZM418.758 106.578V106.086C418.758 104.227 419.023 102.516 419.555 100.953C420.086 99.375 420.867 98.0078 421.898 96.8516C422.93 95.6953 424.203 94.7969 425.719 94.1562C427.234 93.5 428.984 93.1719 430.969 93.1719C432.969 93.1719 434.727 93.5 436.242 94.1562C437.773 94.7969 439.055 95.6953 440.086 96.8516C441.117 98.0078 441.898 99.375 442.43 100.953C442.961 102.516 443.227 104.227 443.227 106.086V106.578C443.227 108.422 442.961 110.133 442.43 111.711C441.898 113.273 441.117 114.641 440.086 115.812C439.055 116.969 437.781 117.867 436.266 118.508C434.75 119.148 433 119.469 431.016 119.469C429.031 119.469 427.273 119.148 425.742 118.508C424.211 117.867 422.93 116.969 421.898 115.812C420.867 114.641 420.086 113.273 419.555 111.711C419.023 110.133 418.758 108.422 418.758 106.578ZM426.656 106.086V106.578C426.656 107.531 426.727 108.422 426.867 109.25C427.008 110.078 427.242 110.805 427.57 111.43C427.898 112.039 428.344 112.516 428.906 112.859C429.469 113.203 430.172 113.375 431.016 113.375C431.844 113.375 432.531 113.203 433.078 112.859C433.641 112.516 434.086 112.039 434.414 111.43C434.742 110.805 434.977 110.078 435.117 109.25C435.258 108.422 435.328 107.531 435.328 106.578V106.086C435.328 105.164 435.258 104.297 435.117 103.484C434.977 102.656 434.742 101.93 434.414 101.305C434.086 100.664 433.641 100.164 433.078 99.8047C432.516 99.4453 431.812 99.2656 430.969 99.2656C430.141 99.2656 429.445 99.4453 428.883 99.8047C428.336 100.164 427.898 100.664 427.57 101.305C427.242 101.93 427.008 102.656 426.867 103.484C426.727 104.297 426.656 105.164 426.656 106.086ZM454.5 99.0547V119H446.602V93.6406H454.008L454.5 99.0547ZM453.562 105.453L451.711 105.5C451.711 103.562 451.945 101.836 452.414 100.32C452.883 98.7891 453.547 97.4922 454.406 96.4297C455.266 95.3672 456.289 94.5625 457.477 94.0156C458.68 93.4531 460.016 93.1719 461.484 93.1719C462.656 93.1719 463.727 93.3438 464.695 93.6875C465.68 94.0312 466.523 94.5859 467.227 95.3516C467.945 96.1172 468.492 97.1328 468.867 98.3984C469.258 99.6484 469.453 101.195 469.453 103.039V119H461.508V103.016C461.508 102 461.367 101.227 461.086 100.695C460.805 100.148 460.398 99.7734 459.867 99.5703C459.336 99.3672 458.688 99.2656 457.922 99.2656C457.109 99.2656 456.422 99.4219 455.859 99.7344C455.297 100.047 454.844 100.484 454.5 101.047C454.172 101.594 453.93 102.242 453.773 102.992C453.633 103.742 453.562 104.562 453.562 105.453Z" fill="black"/>
<path d="M1134 0H1348C1356.28 0 1363 6.71573 1363 15V148C1363 156.284 1356.28 163 1348 163H1134V0Z" fill="#FF914D"/>
<path d="M1212.5 117.5L1212.5 45.5L1284.5 45.5L1284.5 117.5L1212.5 117.5Z" fill="white" fill-opacity="0.01"/>
<path d="M1221.5 81.5125L1221.5 108.5L1275.5 108.5L1275.5 81.5" stroke="white" stroke-width="7.24" stroke-linecap="round" stroke-linejoin="round"/>
<path d="M1262 68L1248.5 54.5L1235 68" stroke="white" stroke-width="7.24" stroke-linecap="round" stroke-linejoin="round"/>
<path d="M1248.49 93.5L1248.49 54.5" stroke="white" stroke-width="7.24" stroke-linecap="round" stroke-linejoin="round"/>
</svg>
